<svg xmlns="http://www.w3.org/2000/svg" viewBox="0 0 1363.02 352.31"><defs><style>.cls-1{fill:#e4f7ff;}.cls-2{fill:#d2f2ff;}.cls-3{fill:#caf0ff;}</style></defs><title>360_bridge</title><g id="Layer_2" data-name="Layer 2"><g id="Layer_3" data-name="Layer 3"><path class="cls-1" d="M0,352.31H1272.23c.08-.22.17-.43.25-.67-.19-7.1-5.72-10.07-10.52-13.6-6.29,2.93-12.59,4.47-18.93.13-8.42-7.73-20.21-2.66-29.33-7.72-3.2-.4-6.33.71-9.52.45a293.86,293.86,0,0,1-63-1.56c-16.72-2.26-33.75-2.87-49.86-8.68a22.79,22.79,0,0,0-16-.55,22.81,22.81,0,0,1-4.52,2.18,7.25,7.25,0,0,0-1.21-.4c-9.53-2.19-19.4-2.61-29.22-3.34a62.53,62.53,0,0,0-9.59-.9c-9.74-1.17-19.3-3.34-28.25-8.65l-5.91-.18h0a22.61,22.61,0,0,1-2-1.17c-3.83-2.23-7.93-4-11.84-6-10-5-20.74-7.41-31.43-1a7.94,7.94,0,0,0-.49,2.08c-14.47-2.8-28.12,4-42.38,3.76-6.55-1.81-12.82-2.41-17.4,4.12h0L885.78,309l-2.84,0h0c-10.93-4.38-21.31.6-31.91,1.84-2.73-1.42-5.4-3.08-8.72-2.28h0c-9.91-2.34-19.86-1.76-29.81-.34-5.43.25-11-.19-15.88,2.94-9.88-4.84-20-4.23-30.12-1h0c-11.89-1.64-18-8.12-17-20.45-1.59-5.29-5.78-6.58-10.35-5.59-3.72.81-7.32.32-10.92.06-11.92-8.35-34.92-26.28-46.91-33.31-9.58-4.57-15.41-18.94-29.64-11.33l-5.42-.32L616.08,232c-10.52-5.27-24-2.23-33-11.8l-18.44,11.62h0c-.51.36-1,.73-1.48,1.12v0h0c-1.85-6.83-2.23-13.59.89-20.2l-5.43-2.29c-5.37-5.6-11.72-7.89-19.4-5.89-6.26,1.63-12.34.57-18.36-1.26l-8.19,4c-3.44-4.16-1-11.9-8.32-13.68l-5.91,3.19a49.1,49.1,0,0,0-34.56-8.62c-17.91,2.07-32.66-3.46-49.36-9.12-25.78-8.72-53.4-21.47-82.08-7.21-6.6-1-13.25.67-19.93-2.4-12.34-5.67-25.69-2.54-38.47-1.68-7.5.51-12.25,6.67-12.45,15h0c-3.22,4.65-6.68,3.75-11.31,1.55-13.9-6.6-17.92-4.77-23.69,9.44-5.55,1-12.56-8.58-16.78,2.28-9.81-1.25-19.72-13.15-29.37.31-6,4.44-3.89,14.8-12.53,17.36h0c-3.05-17.15-17.81-23.08-29.8-31.65,0-.9,0-1.79,0-2.67-2.51-5.91-7.71-8.49-13.23-10.67l-.21-.06c2.88-5.8-4.13-5.75-7.78-7.69q.06-2.79.13-5.59l-5.87-.78c-2.91-2.06-6.24-1.58-9.48-1.68,0-.1,0-.18,0-.28-3.57-14-13.45-3-20-5l-4.07-.24h0c-6.9-6-17.13-7.75-22.92-15.22A11.58,11.58,0,0,0,55,127.5a17.92,17.92,0,0,0-4.23-7.93c-11.35-7.46-22.35-16.28-37.22-8.8L0,109v30a9.1,9.1,0,0,1,.53-1.47c-.2.49-.38,1-.53,1.47v109H0v16.36H0v57.25H0Z"/><path class="cls-2" d="M323.86,301.15c-11.24,13.53-17.41,22.16-18.08,23.09l13.34,9.46c.08-.12,1.69-2.36,4.73-6.32v24.93h9.19v-36.5c3.49-4.27,7.61-9.18,12.35-14.63v51.13h7.82v-60q4.09-4.55,8.65-9.43v69.4h7.41V275.08q4.92-5.13,10.3-10.51h3.29v65.6c-7.67,9.84-11.88,16-12.4,16.73l7.93,5.41h9v-1c9.11-12.43,36.22-47.64,77.92-86.78h693.84a785.36,785.36,0,0,1,91.1,87.74h21.57c-12.71-15.35-42.58-49.38-87.2-87.74h5.53c53.17,46.28,83.22,83.88,83.61,84.37l12.83-10.15c-1.49-1.88-26.55-33.29-71.7-74.22H1329V240.92H1187.69c-14-11.72-29.48-23.86-46.25-36C989,94.21,850.07,71,760.38,71,618.1,71,502,139.87,429.74,197.67c-18.42,14.73-34.92,29.39-49.44,43.25H168.52v23.65H323.86Zm198.62-60.23H491.9c1.36-1.15,2.71-2.3,4.1-3.45,8.21-6.81,17.05-13.79,26.48-20.78Zm56.82,0H525.54V214.47a568.78,568.78,0,0,1,53.76-34.92Zm11.74,0h-8.69V177.81q4.29-2.41,8.69-4.77Zm76.74,0H648.86V146.58q9.31-3.52,18.93-6.67Zm76.45,0H716.89V127c9-1.77,18.08-3.28,27.35-4.44Zm80.77,0H786.76V119.71c1.57,0,3.14-.07,4.72-.07,11.34,0,22.51.46,33.54,1.24Zm84.72,0H861V124.79c16.68,2.45,32.94,5.71,48.75,9.65Zm87.78,0H934.75V141.35a571.08,571.08,0,0,1,62.77,23.12Zm95.34,0V216c12.85,8.35,24.85,16.73,35.95,24.93Zm38.58-23.08c10.65,7.72,20.75,15.45,30.32,23.08h-6c-3.74-2.93-7.54-5.87-11.44-8.81-17.09-12.89-34-24.52-50.65-35.06l-1.26-5.72C1106.44,200.24,1119.47,209.16,1131.44,217.84Zm-41.63,23.08h-76.1V171.8a664.56,664.56,0,0,1,76.1,42.22Zm-3.93-53.73,1.18,5.73a657.61,657.61,0,0,0-75.09-40l-3.73-8A732.44,732.44,0,0,1,1085.88,187.19Zm-83.51-20.59c2.78,1.24,5.55,2.48,8.29,3.75v70.57h-8.29Zm-4.66-26.44,3.2,7.91a584.4,584.4,0,0,0-62.6-22.68l-8.93-11.24A647.59,647.59,0,0,1,997.71,140.16Zm-83.12-30.41L922.73,121q-4.1-1.09-8.14-2.1Zm0,25.95c5.76,1.5,11.48,3.05,17.11,4.72v100.5H914.59Zm-4.85-27.4v9.4c-17.69-4.26-34.59-7.39-50.59-9.62L849.9,94.91A577.82,577.82,0,0,1,909.74,108.3ZM829.86,91.91l4,.53L842.8,106c-4.4-.47-8.69-.85-12.94-1.19Zm0,29.32q14.21,1.16,28.07,3.1v116.6H829.86ZM825,91.32v13.15c-11.86-.83-23.06-1.19-33.54-1.19-2.92,0-5.82.07-8.72.14l-15.9-16A535.72,535.72,0,0,1,825,91.32ZM749.09,87.5c1,0,2,0,3,0L768.72,104c-6.62.38-13.15.95-19.64,1.65Zm0,34.56q17-1.91,34.61-2.3V240.92H749.09Zm-4.85-34.38v18.45c-11.54,1.38-22.85,3.25-33.93,5.54L685.73,93.88A434,434,0,0,1,744.24,87.67ZM672.63,96.4l2-.42,23.09,18.45c-8.53,2-16.91,4.32-25.14,6.81Zm0,42a416.05,416.05,0,0,1,41.2-10.72V240.92h-41.2Zm-4.85-40.91v25.28q-13.2,4.15-25.86,9l-30.47-18.28A475.43,475.43,0,0,1,667.79,97.45Zm-71.9,21.71c1.58-.61,3.19-1.2,4.79-1.8l30.66,18.55c-12.24,5-24.07,10.42-35.45,16.15Zm0,51.3a483.87,483.87,0,0,1,49.91-22.7v93.15H595.89ZM591,121.11v33.45c-4.74,2.45-9.43,4.93-14,7.48l-40.3-15.64A547.11,547.11,0,0,1,591,121.11ZM525.7,152.44l41.41,15.23a588.46,588.46,0,0,0-52.81,34.75L469.78,188A623.06,623.06,0,0,1,525.7,152.44ZM459.12,196.7l46,12.63c-7,5.34-13.61,10.65-19.89,15.86s-12.41,10.52-18.26,15.73h-7.81Zm-18.79,13.45q6.71-5.36,13.94-10.83v41.6H404.34C415.38,230.84,427.38,220.48,440.33,210.15Zm-52.92,54.43h54.26a687.4,687.4,0,0,0-54.26,59.87Zm-34.17,0h3.35c-1.14,1.19-2.25,2.36-3.35,3.53Zm-20.17,0h12.35v11.93c-4.48,4.89-8.61,9.52-12.35,13.83Z"/><path class="cls-3" d="M1195,273.11c-3.4,1.66-6.41,4.13-9.67,6.09a94,94,0,0,0-2.65,12.86l.33,0c4.41.92.19,6.12,3.85,7.41,3.81,2.75,8.32,1.33,12.48,2a13.8,13.8,0,0,1-3.2,1.39c3.34,10.61,10.41,20.22,8.73,32.2l8-.22h0c9.19,3.79,18.86,3.09,28.44,3.23a9.06,9.06,0,0,0,1.77,3.67c6.56,5.25,13.12,5.06,19.7,0a5.62,5.62,0,0,0,1-.83l6.47,10.87c-.13.15-.26.29-.39.43H1363V0l-8.46,2.69c1.24,2.92,1,5.32-2.82,5.19-5.93-.2-8.29,3.73-10.37,8.19,1.3,2,2,4.41,4,5.86-.27,3,1.95,6.45,1.62,9.47a13.39,13.39,0,0,0-4.71-.12C1336,32.62,1329.84,34.11,1326,40c-1,2.29-1.77,4.22-2.32,5.88-1.54,1.75-2.68,4-4.27,5.71-4.56,4.86-.18,9.46.42,14.18h0c-.8,5-4.5,5.3-8.44,5.23a22.59,22.59,0,0,0-2.66,2.75,27.87,27.87,0,0,0-1.27,4.2c-5.77,7.24-11.28,14.39-9.2,25.78,1.14,6.27,12.16,5.34,7.71,13.48-7,6.86-18.36,8.62-22.07,19.21l-2.77-.93c-12.68,6.34-13.71,19.84-18.93,30.76h0c-7.67-2.25-14.88-1-21.77,2.8-1.92,9.69-8,17.09-13.7,24.67-.12,6.28,1,12.73-2.75,18.48h0l-7.92,3.48h0c-3.13-.13-6.26-.38-9.38-.36-16.16.09-18.2,3.63-10,17.85,1.64,2.83,2.68,5.31,1.23,7.86-.21,0-.4-.08-.61-.1a5.46,5.46,0,0,0-3.33,1.73c-9,.72-11.08,4.59-8.87,10.32a13.41,13.41,0,0,1,5.86,9.8c1,1.45,2,2.9,3,4.37C1195.54,269,1196.89,272.2,1195,273.11Z"/><path class="cls-3" d="M0,352.31H503a16.73,16.73,0,0,1-3.71-7.84,8.52,8.52,0,0,0-8.4-4.2c-5.25-12.73-14.83-11.21-25-7.61h0c-1.25-1.82-2.14-4.15-3.83-5.38-5.53-4-10.47-9.78-18.62-7.6-6.56,1.76-7.77,6.65-7.55,12.46l-8,6.79h0L424.85,336h0a7.82,7.82,0,0,0-2.71-6.42h0c2.9-14.29-8.32-12-16.12-13.74-4.86-.17-8.48,10-14.45,1.81-10.82-6-14.08-9.33-17.59-9.67l0-.07-2.84-2.59a8.83,8.83,0,0,0-3.42,1.33c-.84.84-1.73,1.64-2.59,2.46L365,306c.29-.09.56-.16.87-.27,1.18-3.5,1.35-6.88-1.13-10-2.43-2-5.17-1.66-7.95-1.07-6.54-4.46-13.08-8.91-21.54-8.5-3.14-3.15-6.32-3.4-9.51-1-1.15-3.28-5.4-5.38-3.7-9.73-5.89-3.6-12.79.41-18.79-2.47l-3.26-.08c2.95-2.08,6.72-1.5,10.31-1.56-7.15-5.07-12.86-11.7-18-19.85-7-11-17.12-18.47-26.66-26.85a7.17,7.17,0,0,0-3.23,1.27c-9.59-6.34-20.55.72-30.41-2.88a21.18,21.18,0,0,0-5.71.06c-6.14,1.28-12.41,2.08-17.84,5.57-.25.3-.5.57-.76.84-4.61-2.79-8.31.36-12.12,2.83-1.32-.32-2.66-.74-4-1.2a13,13,0,0,0-3.17,0l-.21-2.16c-4.85.64-9.7,1.81-14.56,1.29a17,17,0,0,1-2.41-2,7.5,7.5,0,0,0-3.44-.68l-1.09-1.07a6.65,6.65,0,0,0,.77-.81,8.32,8.32,0,0,0,.1-3.71c2.08-2.42,2.85-5.06.36-8.23-3.05-17.15-17.81-23.08-29.8-31.65,0-.9,0-1.79,0-2.67-2.51-5.91-7.71-8.49-13.23-10.67l-.21-.06c2.88-5.8-4.13-5.75-7.78-7.69q.06-2.79.13-5.59l-5.87-.78c-2.91-2.06-6.24-1.58-9.48-1.68,0-.1,0-.18,0-.28-3.57-14-13.45-3-20-5l-4.07-.24h0c-6.9-6-17.13-7.75-22.92-15.22A11.58,11.58,0,0,0,55,127.5a17.92,17.92,0,0,0-4.23-7.93c-11.35-7.46-22.35-16.28-37.22-8.8L0,109v30a9.1,9.1,0,0,1,.53-1.47c-.2.49-.38,1-.53,1.47v109H0v16.36H0v57.25H0Z"/></g></g></svg>