<?xml version="1.0" encoding="UTF-8"?>
<svg width="153px" height="29px" viewBox="0 0 153 29" version="1.1" xmlns="http://www.w3.org/2000/svg" xmlns:xlink="http://www.w3.org/1999/xlink">
    <!-- Generator: Sketch 46.1 (44463) - http://www.bohemiancoding.com/sketch -->
    <title>en_logo</title>
    <desc>Created with Sketch.</desc>
    <defs></defs>
    <g id="Page-1" stroke="none" stroke-width="1" fill="none" fill-rule="evenodd">
        <g id="en_logo" fill-rule="nonzero" fill="#FFFFFF">
            <path d="M110.483386,22.2035568 C110.161333,22.4379092 109.771615,22.5607932 109.373386,22.5535568 C109.012026,22.5736282 108.655961,22.4596876 108.373386,22.2335568 C108.149012,22.0518674 108.014113,21.7820698 108.003386,21.4935568 C107.986719,21.2787224 108.031825,21.0636014 108.133386,20.8735568 C108.508568,21.0464873 108.921259,21.1221472 109.333386,21.0935568 C109.880053,21.0935568 110.333386,20.7235568 110.693386,19.9835568 L110.693386,13.7035568 C110.720004,13.3756187 110.627714,13.0490538 110.433386,12.7835568 C110.054231,12.3861008 109.598366,12.0697169 109.093386,11.8535568 C109.533977,11.6842587 109.940468,11.4369767 110.293386,11.1235568 C110.547592,10.8096536 110.685384,10.4174777 110.683386,10.0135568 L110.683386,4.45355676 C110.420554,3.80619166 109.770185,3.40223571 109.073386,3.45355676 C108.812215,3.44254357 108.55498,3.52006637 108.343386,3.67355676 C108.2475,3.53974341 108.198304,3.37809938 108.203386,3.21355676 C108.202843,3.04478769 108.247748,2.8789853 108.333386,2.73355676 C108.422421,2.58422443 108.537588,2.4521218 108.673386,2.34355676 C109.038029,2.09682836 109.473896,1.97731639 109.913386,2.00355676 C110.392931,1.9899986 110.862543,2.1418279 111.243386,2.43355676 C111.493532,2.14499122 111.861868,1.98660686 112.243386,2.00355676 C112.626202,2.00145153 112.991077,2.16564506 113.243386,2.45355676 C113.422604,2.19402082 113.708996,2.0287946 114.023386,2.00355676 C114.226505,1.99537262 114.429507,2.02243951 114.623386,2.08355676 C114.761962,2.12461188 114.891088,2.19257331 115.003386,2.28355676 C115.199868,2.47613209 115.359194,2.70325553 115.473386,2.95355676 L123.603386,17.5835568 L123.603386,13.5835568 C123.627574,13.2791042 123.538553,12.9764344 123.353386,12.7335568 C122.956551,12.3657825 122.500037,12.0682035 122.003386,11.8535568 C122.427501,11.6697289 122.821837,11.4236905 123.173386,11.1235568 C123.440268,10.8581166 123.594319,10.4998575 123.603386,10.1235568 L123.603386,4.63355676 C123.424716,4.29476253 123.171739,4.00076247 122.863386,3.77355676 C122.571897,3.56570781 122.22133,3.45703209 121.863386,3.46355676 C121.535961,3.45093555 121.211202,3.52694299 120.923386,3.68355676 C120.818416,3.48367521 120.770009,3.25892826 120.783386,3.03355676 C120.793192,2.74069629 120.946526,2.47142836 121.193386,2.31355676 C121.502706,2.09582724 121.875491,1.98680544 122.253386,2.00355676 C122.668831,1.99569598 123.076856,2.11426755 123.423386,2.34355676 C123.726535,2.1179591 124.09554,1.99847171 124.473386,2.00355676 C124.852872,1.99827335 125.222967,2.1216382 125.523386,2.35355676 C125.854131,2.12148456 126.249369,1.99906565 126.653386,2.00355676 C127.014746,1.98348538 127.37081,2.09742591 127.653386,2.32355676 C127.87776,2.50524617 128.012659,2.77504379 128.023386,3.06355676 C128.040053,3.27839112 127.994947,3.49351212 127.893386,3.68355676 C127.511382,3.50978011 127.092027,3.43415869 126.673386,3.46355676 C126.113386,3.46355676 125.666719,3.84022343 125.333386,4.59355676 L125.333386,10.1235568 C125.308517,10.4203312 125.393969,10.715853 125.573386,10.9535568 C125.970005,11.3366867 126.430184,11.6479837 126.933386,11.8735568 C126.481342,12.0916651 126.05532,12.3600254 125.663386,12.6735568 C125.436367,12.9286908 125.317957,13.2623929 125.333386,13.6035568 L125.573386,20.2535568 C125.842824,20.7946627 126.398983,21.1330254 127.003386,21.1235568 C127.264458,21.1337885 127.521442,21.0563411 127.733386,20.9035568 C127.829272,21.0373702 127.878468,21.1990142 127.873386,21.3635568 C127.873928,21.5323259 127.829024,21.6981283 127.743386,21.8435568 C127.65435,21.9928891 127.539184,22.1249918 127.403386,22.2335568 C127.08042,22.4650194 126.69058,22.5844299 126.293386,22.5735568 C125.885092,22.5807583 125.480844,22.4916865 125.113386,22.3135568 C124.451299,22.7019725 123.621495,22.6587126 123.003386,22.2035568 C122.78647,22.4111138 122.503039,22.535115 122.203386,22.5535568 C122.014192,22.5599819 121.825177,22.536355 121.643386,22.4835568 C121.512113,22.4325991 121.395361,22.3501861 121.303386,22.2435568 C120.998943,21.8618758 120.740497,21.4456775 120.533386,21.0035568 L112.523386,7.12355676 L112.523386,19.9935568 C112.876719,20.7468901 113.330053,21.1235568 113.883386,21.1235568 C114.295465,21.1512895 114.707945,21.0756681 115.083386,20.9035568 C115.188355,21.1034384 115.236762,21.3281853 115.223386,21.5535568 C115.213579,21.8464173 115.060246,22.1156852 114.813386,22.2735568 C114.52127,22.4801373 114.17113,22.5886808 113.813386,22.5835568 C113.396884,22.5864295 112.987974,22.4720734 112.633386,22.2535568 C112.316579,22.4734308 111.938981,22.5888079 111.553386,22.5835568 C111.162106,22.5929021 110.781126,22.4576008 110.483386,22.2035568 Z M120.723386,18.8235568 C120.792099,18.7129867 120.823636,18.583334 120.813386,18.4535568 C120.811257,18.2582503 120.787785,18.0637617 120.743386,17.8735568 C120.690561,17.6397686 120.623774,17.4093556 120.543386,17.1835568 C120.336894,16.6454965 120.096409,16.1211059 119.823386,15.6135568 L114.263386,5.92355676 C114.189606,6.08640158 114.158628,6.26538804 114.173386,6.44355676 C114.342298,7.46010034 114.720262,8.43054802 115.283386,9.29355676 L120.723386,18.8235568 Z" id="Shape"></path>
            <path d="M132,22.0035257 C131.59849,22.2833447 131.119351,22.4302339 130.63,22.4235257 C130.236883,22.4516564 129.846681,22.3381431 129.53,22.1035257 C129.322068,21.9473647 129.188116,21.7120438 129.16,21.4535257 C129.145417,21.2134103 129.20853,20.97498 129.34,20.7735257 C129.591827,20.9374408 129.890272,21.0146854 130.19,20.9935257 C130.563333,20.9935257 130.896667,20.7501924 131.19,20.2635257 L131.19,16.0735257 C131.215481,15.7735913 131.13009,15.4747255 130.95,15.2335257 C130.527608,14.8650093 130.04799,14.5677815 129.53,14.3535257 C129.950665,14.1886071 130.344861,13.9628706 130.7,13.6835257 C130.983544,13.4047208 131.139174,13.0210748 131.13,12.6235257 L131.13,10.7135257 C131.13,9.97352575 130.876667,9.57019245 130.37,9.50352575 C130.183476,9.49318845 129.996524,9.49318845 129.81,9.50352575 C129.581005,9.50256175 129.358616,9.58022145 129.18,9.72352575 C129.064669,9.57458395 129.00143,9.39189475 129,9.20352575 C129.007355,8.99634455 129.054903,8.79256717 129.14,8.60352575 C129.234,8.38230449 129.365991,8.17924121 129.53,8.00352575 C129.929218,7.55526538 130.499751,7.29725366 131.1,7.29352575 C131.652315,7.2845827 132.200495,7.390133 132.71,7.60352575 C133.034428,7.10132973 133.582629,6.78807179 134.18,6.76352575 C135.08,6.73685908 135.53,7.19352575 135.53,8.13352575 L135.53,12.6235257 C135.501232,12.9486863 135.601842,13.2720753 135.81,13.5235257 C136.199797,13.872981 136.646153,14.1536441 137.13,14.3535257 C136.69023,14.5427879 136.276797,14.7881583 135.9,15.0835257 C135.650528,15.3555786 135.517685,15.7146116 135.53,16.0835257 L135.53,20.3035257 C135.710897,20.7016294 136.094025,20.9698188 136.53,21.0035257 C136.826587,21.0246999 137.121869,20.9473644 137.37,20.7835257 C137.496897,20.9646078 137.560197,21.1826422 137.55,21.4035257 C137.530923,21.6813916 137.396826,21.9387122 137.18,22.1135257 C136.862544,22.363358 136.462768,22.4847186 136.06,22.4535257 C135.562093,22.4458905 135.077913,22.2891415 134.67,22.0035257 C134.299397,22.2917747 133.839199,22.4404542 133.37,22.4235257 C132.881125,22.4269411 132.402962,22.2803509 132,22.0035257 Z M133.31,4.85352575 C132.856657,4.85267816 132.411604,4.73192746 132.02,4.50352575 C131.621701,4.28514278 131.292585,3.95949211 131.07,3.56352575 C130.849309,3.17464765 130.523534,2.85580385 130.13,2.64352575 L129.71,2.44352575 L130.16,2.16352575 C130.554829,1.92055043 130.876266,1.5749189 131.09,1.16352575 C131.296633,0.784360919 131.614124,0.477336589 132,0.283525749 C132.407316,0.0848073389 132.857038,-0.0113165451 133.31,0.00352574887 C134.198831,-0.0463872731 135.032194,0.437120329 135.43,1.23352575 C135.735262,1.78509106 136.223266,2.21297805 136.81,2.44352575 L136.42,2.65352575 C136.29475,2.71411037 136.174389,2.78432104 136.06,2.86352575 C135.782275,3.06727298 135.553404,3.33030454 135.39,3.63352575 C135.180982,3.98517575 134.889181,4.28040882 134.54,4.49352575 C134.173811,4.73075724 133.746311,4.85587928 133.31,4.85352575 L133.31,4.85352575 Z M132.62,3.25352575 C132.573868,3.14508886 132.543558,3.03058522 132.53,2.91352575 C132.50713,2.69077789 132.50713,2.46627361 132.53,2.24352575 C132.550442,1.80042852 132.692274,1.37147294 132.94,1.00352575 C132.699014,0.979194039 132.457388,1.04315401 132.26,1.18352575 C132.155452,1.27559511 132.058473,1.37591808 131.97,1.48352575 C131.907456,1.56270725 131.850645,1.64625296 131.8,1.73352575 C131.744739,1.82659678 131.684658,1.91671943 131.62,2.00352575 C131.515672,2.17454188 131.375857,2.3211768 131.21,2.43352575 C131.366521,2.52549608 131.499925,2.65205859 131.6,2.80352575 C131.727449,2.98713449 131.864298,3.16403688 132.01,3.33352575 C132.234496,3.6159417 132.579423,3.77542448 132.94,3.76352575 L132.78,3.49352575 L132.62,3.25352575 Z M133.14,15.8235257 C133.14,15.5235257 133.14,15.2735257 133.14,15.0735257 C133.14,14.8735257 133.14,14.7135257 133.14,14.5935257 L133.14,14.2435257 C133.14,14.1101924 133.14,13.9401924 133.14,13.7335257 C133.14,13.526859 133.14,13.296859 133.14,13.0435257 C133.14,12.7901924 133.14,12.5401924 133.14,12.2935257 C133.118505,11.8601724 133.065026,11.4289991 132.98,11.0035257 C132.917804,10.6047953 132.702552,10.2460424 132.38,10.0035257 L132.38,10.8535257 C132.410103,11.7214713 132.37668,12.5904564 132.28,13.4535257 C132.23823,13.6739477 132.130061,13.8763281 131.97,14.0335257 C131.779652,14.1833146 131.562418,14.2953258 131.33,14.3635257 C131.856667,14.5501924 132.153333,14.7735257 132.22,15.0335257 C132.361178,15.9731937 132.414742,16.9239468 132.38,17.8735257 L132.38,18.7235257 C132.841565,18.3195316 133.092218,17.7260742 133.06,17.1135257 C133.1,16.5401924 133.123333,16.106859 133.13,15.8135257 L133.14,15.8235257 Z" id="Shape"></path>
            <path d="M150.53,18.5029725 C150.742537,18.1251755 151.158736,17.9092229 151.59,17.9529725 C151.917286,17.9419315 152.225771,18.1056951 152.4,18.3829725 C152.563666,18.6282752 152.647494,18.9181778 152.64,19.2129725 C152.638272,19.5603638 152.556126,19.9026367 152.4,20.2129725 C152.235058,20.5471328 152.015357,20.8513341 151.75,21.1129725 C151.468342,21.3917204 151.152492,21.633648 150.81,21.8329725 C150.451686,22.0436885 150.073121,22.2178955 149.68,22.3529725 C148.873716,22.6373909 148.024979,22.782792 147.17,22.7829725 C146.315076,22.7891079 145.466747,22.6330154 144.67,22.3229725 C143.923046,22.0278629 143.242941,21.5857947 142.67,21.0229725 C141.478692,19.7965627 140.747476,18.1963652 140.6,16.4929725 C140.576815,16.1663724 140.473799,15.8504593 140.3,15.5729725 C139.936697,15.175218 139.493769,14.8583545 139,14.6429725 C139.914371,14.2432134 140.530898,13.3685159 140.6,12.3729725 C140.759722,10.7891066 141.566708,9.34159839 142.83,8.37297249 C144.080825,7.44004398 145.610247,6.95725423 147.17,7.00297249 C148.553468,6.96302891 149.900645,7.44901319 150.94,8.36297249 C151.851124,9.09304914 152.383949,10.1954438 152.39,11.3629725 C152.317445,11.873336 152.590396,12.3703518 153.06,12.5829725 C152.840768,12.9841565 152.417113,13.2306465 151.96,13.2229725 C151.805202,13.2251085 151.650724,13.2083174 151.5,13.1729725 C151.08306,13.787777 150.39275,14.1609176 149.65,14.1729725 C149.449659,14.1670463 149.251105,14.1333931 149.06,14.0729725 C148.879071,14.0340291 148.714783,13.9396508 148.59,13.8029725 C148.843333,13.6963058 148.993333,13.4329725 149.04,13.0129725 L148.79,13.0129725 C148.196667,13.0129725 147.83,12.6796392 147.69,12.0129725 C148.264053,12.0499192 148.809783,11.7596377 149.1,11.2629725 C149.211094,11.0683803 149.266452,10.8469511 149.26,10.6229725 C149.292515,10.1175292 149.093889,9.62464119 148.72,9.28297249 C148.300353,8.94316155 147.769089,8.77201595 147.23,8.80297249 C145.756667,8.80297249 145.02,9.75630579 145.02,11.6629725 L145.02,18.0329725 C144.855325,19.2553054 145.562196,20.4278786 146.72,20.8529725 C147.083005,20.9795363 147.465637,21.0404866 147.85,21.0329725 C148.239141,21.0368716 148.626703,20.9829499 149,20.8729725 C149.313914,20.7842006 149.608821,20.638442 149.87,20.4429725 C150.328069,20.1115867 150.596575,19.5783046 150.59,19.0129725 C150.591998,18.8411005 150.571832,18.669688 150.53,18.5029725 L150.53,18.5029725 Z M142.83,18.9829725 C142.939862,18.9085774 143.00693,18.7856177 143.01,18.6529725 C143.000271,18.4056202 142.959965,18.160423 142.89,17.9229725 C142.607988,16.9917553 142.426947,16.0329082 142.35,15.0629725 C142.343849,14.6423771 142.36054,14.2217579 142.4,13.8029725 C142.433333,13.5029725 142.48,13.1996392 142.54,12.8929725 C142.646667,12.2996392 142.76,11.7763058 142.88,11.3229725 C142.940902,11.127727 142.981123,10.9266231 143,10.7229725 C143.016103,10.5498043 142.949354,10.379223 142.82,10.2629725 C142.414632,10.777384 142.127809,11.3749324 141.98,12.0129725 C141.786667,12.7463058 141.63,13.3929725 141.51,13.9529725 C141.463333,14.1796392 141.206667,14.4029725 140.74,14.6229725 C141.213333,14.8429725 141.47,15.0663058 141.51,15.2929725 C141.679914,16.2577687 141.947973,17.2026767 142.31,18.1129725 C142.46477,18.4136722 142.638452,18.7042553 142.83,18.9829725 L142.83,18.9829725 Z" id="Shape"></path>
            <path d="M4.92035762,22.7007263 C4.37528782,22.7059801 3.84037712,22.5531485 3.38035762,22.2607263 C3.01465852,22.5143774 2.58492742,22.6599315 2.14035762,22.6807263 C1.82404212,22.6876111 1.50814512,22.6540051 1.20035762,22.5807263 C0.975059923,22.5222379 0.759469123,22.4312856 0.560357623,22.3107263 C0.232666623,22.1506983 0.0180719228,21.8249743 0.000357622804,21.4607263 C-0.0047241772,21.2961837 0.0444718228,21.1345397 0.140357623,21.0007263 C0.351952023,21.1542167 0.609186823,21.2317395 0.870357623,21.2207263 C1.56636632,21.2688502 2.21500972,20.8659662 2.48035762,20.2207263 L2.48035762,13.8207263 C2.50523532,13.5037967 2.41662542,13.1883453 2.23035762,12.9307263 C1.85622212,12.5055842 1.39607422,12.1647339 0.880357623,11.9307263 C1.31019952,11.7855645 1.70761412,11.5579852 2.05035762,11.2607263 C2.33836892,10.9468291 2.49884222,10.5367306 2.50035762,10.1107263 L2.50035762,4.59072626 C2.23752542,3.94336116 1.58715632,3.53940521 0.890357623,3.59072626 C0.629186823,3.57971307 0.371952023,3.65723587 0.160357623,3.81072626 C0.0658973228,3.67999169 0.0167365228,3.52197505 0.0203576228,3.36072626 C0.0201661228,3.18916241 0.0725126228,3.02165369 0.170357623,2.88072626 C0.277606223,2.72561425 0.417558623,2.59590234 0.580357623,2.50072626 C0.996989723,2.25143853 1.47489742,2.12330387 1.96035762,2.13072626 C2.46925282,2.12815642 2.96727722,2.27791201 3.39035762,2.56072626 C3.82190302,2.28011163 4.32559942,2.13073961 4.84035762,2.13072626 C5.33302532,2.12780164 5.81946802,2.2408482 6.26035762,2.46072626 C7.18993772,2.17022698 8.15655242,2.01529919 9.13035762,2.00072626 C9.91264982,1.99349493 10.6945081,2.04027278 11.4703576,2.14072626 C12.1543286,2.22836738 12.8256109,2.39618796 13.4703576,2.64072626 C14.0957629,2.89434753 14.6843397,3.23067715 15.2203576,3.64072626 C15.7846231,4.06276717 16.2775493,4.57257445 16.6803576,5.15072626 C17.6684848,6.64609256 18.2666574,8.36497936 18.4203576,10.1507263 C18.4086159,10.5383041 18.5019092,10.9218434 18.6903576,11.2607263 C18.9910867,11.6164927 19.3862928,11.8799634 19.8303576,12.0207263 C19.4530924,12.1310478 19.1093566,12.3338519 18.8303576,12.6107263 C18.555822,12.9768111 18.3926401,13.4142773 18.3603576,13.8707263 C18.2439334,16.3900556 17.2045657,18.7784654 15.4403576,20.5807263 C13.7511485,22.135059 11.5139279,22.9551335 9.22035762,22.8607263 C8.28250682,22.8755549 7.35004942,22.7161895 6.47035762,22.3907263 C5.98915882,22.6262613 5.45513152,22.7330668 4.92035762,22.7007263 L4.92035762,22.7007263 Z M3.75035762,18.9607263 C4.18369092,18.7940596 4.42369092,18.2207263 4.47035762,17.2407263 C4.51702432,16.2607263 4.54369092,14.907393 4.55035762,13.1807263 C4.55035762,11.4540596 4.55035762,10.3040596 4.55035762,9.73072626 C4.55035762,9.15739293 4.55035762,8.69739293 4.55035762,8.35072626 C4.60465052,7.71317004 4.50520102,7.07189235 4.26035762,6.48072626 C4.13413202,6.30365411 3.97019302,6.15679211 3.78035762,6.05072626 C3.82541552,7.78965418 3.76195892,9.52969956 3.59035762,11.2607263 C3.43527272,11.6420146 3.10241532,11.9225124 2.70035762,12.0107263 C3.22702432,12.197393 3.52369092,12.4207263 3.59035762,12.6807263 C3.74781322,14.2086661 3.80126962,15.7455389 3.75035762,17.2807263 L3.75035762,18.9607263 Z M7.31035762,20.3707263 C7.73248192,20.8457186 8.34541502,21.1063069 8.98035762,21.0807263 C9.60847122,21.0974416 10.2307593,20.9564813 10.7903576,20.6707263 C11.3282252,20.3686032 11.774058,19.9262265 12.0803576,19.3907263 C12.9039232,17.6622826 13.2689562,15.7510248 13.1403576,13.8407263 C13.1830259,13.4455511 13.0914426,13.0475158 12.8803576,12.7107263 C12.5516588,12.3730754 12.1419841,12.125205 11.6903576,11.9907263 C12.0615016,11.8866121 12.4036793,11.6984144 12.6903576,11.4407263 C12.9600864,11.1004545 13.098503,10.6745572 13.0803576,10.2407263 C13.0822398,9.75560716 13.0488182,9.27099416 12.9803576,8.79072626 C12.9232618,8.3101658 12.8262602,7.83519237 12.6903576,7.37072626 C12.5378667,6.90104166 12.3437634,6.44590303 12.1103576,6.01072626 C11.8897383,5.58990291 11.6102608,5.20267512 11.2803576,4.86072626 C10.6371023,4.16239289 9.72979512,3.76680697 8.78035762,3.77072626 L7.92035762,3.77072626 C7.68578422,3.76348273 7.45960002,3.85833416 7.30035762,4.03072626 L7.31035762,20.3707263 Z M13.8203576,6.06072626 C14.4153108,7.55662531 14.7533969,9.14224885 14.8203576,10.7507263 C14.8546688,11.0191565 14.8166946,11.29188 14.7103576,11.5407263 C14.6375507,11.6185441 14.5571514,11.6888935 14.4703576,11.7507263 C14.3123408,11.8565582 14.1408017,11.940646 13.9603576,12.0007263 C14.4870243,12.2340596 14.7636909,12.4607263 14.7903576,12.6807263 C14.7991915,12.7771911 14.7991915,12.8742615 14.7903576,12.9707263 L14.7903576,13.2607263 C14.7925103,14.4141333 14.6684385,15.5643125 14.4203576,16.6907263 C14.1736909,17.797393 13.9903576,18.547393 13.8703576,18.9407263 C14.26288,18.8288932 14.5808515,18.5405004 14.7303576,18.1607263 C14.9165043,17.7362836 15.0702764,17.2983676 15.1903576,16.8507263 C15.3222822,16.36044 15.4257878,15.8629455 15.5003576,15.3607263 C15.6774323,14.2462037 15.7643805,13.1192209 15.7603576,11.9907263 C15.830109,10.2526755 15.51244,8.52086672 14.8303576,6.92072626 C14.637278,6.49892321 14.2675447,6.18410076 13.8203576,6.06072626 Z" id="Shape"></path>
            <path d="M23.98,22.0035257 C23.5784896,22.2833447 23.0993509,22.4302339 22.61,22.4235257 C22.2009425,22.4558873 21.7945035,22.3346686 21.47,22.0835257 C21.2620676,21.9273647 21.1281157,21.6920438 21.1,21.4335257 C21.0854166,21.1934103 21.1485305,20.95498 21.28,20.7535257 C21.5318267,20.9174408 21.8302715,20.9946854 22.13,20.9735257 C22.5033333,20.9735257 22.8366667,20.7301924 23.13,20.2435257 L23.13,16.0735257 C23.1554807,15.7735913 23.0700904,15.4747255 22.89,15.2335257 C22.4858241,14.8704206 22.0268362,14.5734285 21.53,14.3535257 C21.9506648,14.1886071 22.3448614,13.9628706 22.7,13.6835257 C22.9835441,13.4047208 23.1391741,13.0210748 23.13,12.6235257 L23.13,10.7135257 C23.13,9.97352575 22.8766667,9.57019245 22.37,9.50352575 C22.1834764,9.49318845 21.9965236,9.49318845 21.81,9.50352575 C21.5810047,9.50256175 21.3586159,9.58022145 21.18,9.72352575 C21.0646689,9.57458395 21.0014303,9.39189475 21,9.20352575 C21.007355,8.99634455 21.0549031,8.79256717 21.14,8.60352575 C21.234,8.38230449 21.3659911,8.17924121 21.53,8.00352575 C21.9292182,7.55526538 22.4997512,7.29725366 23.1,7.29352575 C23.6523147,7.2845827 24.2004953,7.390133 24.71,7.60352575 C25.0330132,7.07461278 25.600586,6.74384191 26.22,6.72352575 C27.12,6.72352575 27.57,7.19352575 27.57,8.13352575 L27.57,12.6235257 C27.541232,12.9486863 27.641842,13.2720753 27.85,13.5235257 C28.239797,13.872981 28.686153,14.1536441 29.17,14.3535257 C28.73023,14.5427879 28.316797,14.7881583 27.94,15.0835257 C27.690528,15.3555786 27.557685,15.7146116 27.57,16.0835257 L27.57,20.3035257 C27.75367,20.6977427 28.136259,20.9617291 28.57,20.9935257 C28.866587,21.0146999 29.161868,20.9373644 29.41,20.7735257 C29.536897,20.9546078 29.600197,21.1726422 29.59,21.3935257 C29.570923,21.6713916 29.436826,21.9287122 29.22,22.1035257 C28.902544,22.353358 28.502768,22.4747186 28.1,22.4435257 C27.605229,22.4447341 27.121315,22.2985155 26.71,22.0235257 C26.339397,22.3117747 25.879199,22.4604542 25.41,22.4435257 C24.8985274,22.4536828 24.3972917,22.2994565 23.98,22.0035257 Z M25.29,4.85352575 C24.8366565,4.85267816 24.391604,4.73192746 24,4.50352575 C23.6017005,4.28514278 23.2725854,3.95949211 23.05,3.56352575 C22.8293089,3.17464765 22.5035337,2.85580385 22.11,2.64352575 L21.69,2.44352575 L22.14,2.16352575 C22.5348286,1.92055043 22.8562659,1.5749189 23.07,1.16352575 C23.2766328,0.784360919 23.5941238,0.477336589 23.98,0.283525749 C24.3873155,0.0848073389 24.8370379,-0.0113165451 25.29,0.00352574887 C26.178831,-0.0463872731 27.012194,0.437120329 27.41,1.23352575 C27.715262,1.78509106 28.203266,2.21297805 28.79,2.44352575 L28.4,2.65352575 C28.27475,2.71411037 28.154389,2.78432104 28.04,2.86352575 C27.762275,3.06727298 27.533404,3.33030454 27.37,3.63352575 C27.160982,3.98517575 26.869181,4.28040882 26.52,4.49352575 C26.153811,4.73075724 25.726311,4.85587928 25.29,4.85352575 Z M24.6,3.25352575 C24.5444236,3.14983083 24.5040119,3.03869865 24.48,2.92352575 C24.4571302,2.70077789 24.4571302,2.47627361 24.48,2.25352575 C24.5075054,1.80403597 24.6598858,1.37113725 24.92,1.00352575 C24.6790143,0.979194039 24.4373877,1.04315401 24.24,1.18352575 C24.1354524,1.27559511 24.0384735,1.37591808 23.95,1.48352575 C23.8874561,1.56270725 23.830645,1.64625296 23.78,1.73352575 C23.7247394,1.82659678 23.6646576,1.91671943 23.6,2.00352575 C23.4956718,2.17454188 23.3558571,2.3211768 23.19,2.43352575 C23.346521,2.52549608 23.4799247,2.65205859 23.58,2.80352575 C23.7074492,2.98713449 23.8442983,3.16403688 23.99,3.33352575 C24.2144956,3.6159417 24.5594234,3.77542448 24.92,3.76352575 L24.76,3.49352575 L24.6,3.25352575 Z M25.12,15.8235257 C25.12,15.5235257 25.12,15.2735257 25.12,15.0735257 C25.12,14.8735257 25.12,14.7135257 25.12,14.5935257 L25.12,14.2435257 C25.12,14.1101924 25.12,13.9401924 25.12,13.7335257 C25.12,13.526859 25.12,13.296859 25.12,13.0435257 C25.12,12.7901924 25.12,12.5401924 25.12,12.2935257 C25.0985052,11.8601724 25.0450263,11.4289991 24.96,11.0035257 C24.897804,10.6047953 24.6825523,10.2460424 24.36,10.0035257 L24.36,10.8535257 C24.390103,11.7214713 24.3566805,12.5904564 24.26,13.4535257 C24.2182299,13.6739477 24.1100611,13.8763281 23.95,14.0335257 C23.7596516,14.1833146 23.5424178,14.2953258 23.31,14.3635257 C23.8366667,14.5501924 24.1333333,14.7735257 24.2,15.0335257 C24.3411781,15.9731937 24.3947416,16.9239468 24.36,17.8735257 L24.36,18.7235257 C24.8215651,18.3195316 25.072218,17.7260742 25.04,17.1135257 C25.0866667,16.5401924 25.11,16.106859 25.11,15.8135257 L25.12,15.8235257 Z" id="Shape"></path>
            <path d="M42.14,18.6304603 C42.352537,18.2526633 42.768736,18.0367107 43.2,18.0804603 C43.527286,18.0694193 43.835771,18.2331829 44.01,18.5104603 C44.173666,18.755763 44.257494,19.0456656 44.25,19.3404603 C44.247033,19.688888 44.161348,20.0316281 44,20.3404603 C43.828414,20.678359 43.598171,20.9830925 43.32,21.2404603 C43.017117,21.5201486 42.681314,21.7619268 42.32,21.9604603 C41.941024,22.1717492 41.542502,22.3458931 41.13,22.4804603 C40.259182,22.7688891 39.347334,22.9141094 38.43,22.9104603 C37.532583,22.919201 36.641173,22.7632888 35.8,22.4504603 C35.019537,22.1630909 34.305229,21.7208998 33.7,21.1504603 C32.497017,19.9288732 31.754859,18.3279325 31.6,16.6204603 C31.576815,16.2938602 31.473799,15.9779471 31.3,15.7004603 C30.936697,15.3027058 30.493769,14.9858423 30,14.7704603 C30.713337,14.4808138 31.249929,13.8739089 31.45,13.1304603 C31.509302,12.9234689 31.556053,12.7130862 31.59,12.5004603 C31.830479,10.9265702 32.686659,9.51279523 33.97,8.57046033 C35.182888,7.55264031 36.716636,6.99652388 38.3,7.00046033 C39.91354,6.98048581 41.467112,7.61128628 42.61,8.75046033 C43.843037,9.89413373 44.530429,11.5089602 44.5,13.1904603 C44.5,13.2504603 44.5,13.3104603 44.5,13.3704603 C44.493379,13.4269336 44.493379,13.483987 44.5,13.5404603 C44.509937,13.6503581 44.599748,13.7358929 44.71,13.7404603 C44.876698,13.9238586 44.969353,14.1626245 44.97,14.4104603 C44.983608,14.6455944 44.902391,14.8763705 44.74452,15.0511561 C44.586649,15.2259417 44.365302,15.3301479 44.13,15.3404603 L43.48,15.4404603 L36.09,16.6204603 L36.09,17.8804603 C36.044944,18.7772935 36.378777,19.6517918 37.01,20.2904603 C37.594104,20.8597125 38.384806,21.1666059 39.2,21.1404603 C39.990868,21.1740176 40.773911,20.9721665 41.45,20.5604603 C41.949845,20.2531077 42.253109,19.7072319 42.25,19.1204603 C42.234067,18.953154 42.197109,18.7885231 42.14,18.6304603 Z M33.91,19.1104603 C34.019861,19.0360652 34.08693,18.9131055 34.09,18.7804603 C34.080271,18.533108 34.039965,18.2879108 33.97,18.0504603 C33.687988,17.1192431 33.506947,16.160396 33.43,15.1904603 C33.423849,14.7698649 33.44054,14.3492457 33.48,13.9304603 C33.513333,13.6304603 33.56,13.327127 33.62,13.0204603 C33.726667,12.427127 33.84,11.9037936 33.96,11.4504603 C34.020902,11.2552148 34.061123,11.0541109 34.08,10.8504603 C34.096103,10.6772921 34.029354,10.5067108 33.9,10.3904603 C33.494632,10.9048718 33.207809,11.5024202 33.06,12.1404603 C32.866667,12.8737936 32.71,13.5204603 32.59,14.0804603 C32.543333,14.3137936 32.286667,14.5404603 31.82,14.7604603 C32.293333,14.9804603 32.55,15.197127 32.59,15.4104603 C32.759914,16.3752565 33.027973,17.3201645 33.39,18.2304603 C33.547631,18.5348453 33.724663,18.8287845 33.92,19.1104603 L33.91,19.1104603 Z M39.85,14.4104603 L39.85,10.7304603 C39.883022,10.2809081 39.763212,9.83338273 39.51,9.46046033 C39.232691,9.0681964 38.798198,8.81626359 38.32,8.77046033 C37.97764,8.75840357 37.636667,8.81977883 37.32,8.95046033 C37.049528,9.07646674 36.815532,9.26916934 36.64,9.51046033 C36.181828,10.2561729 35.971772,11.1279043 36.04,12.0004603 L36.04,15.0004603 L39.85,14.4104603 Z M41.79,14.0804603 L41.79,13.6704603 C41.89876,12.6683614 41.757909,11.6549204 41.38,10.7204603 C41.267548,10.5884928 41.127618,10.4826917 40.97,10.4104603 L40.97,14.2204603 L41.79,14.0804603 Z" id="Shape"></path>
            <path d="M48.41,22.3422782 C47.795875,21.7986189 47.452078,21.0122747 47.47,20.1922782 C47.47,18.9189449 48.226667,17.8722782 49.74,17.0522782 C48.669632,16.2391182 47.90787,15.0858954 47.58,13.7822782 C47.490371,13.4434623 47.337708,13.1245666 47.13,12.8422782 C46.810147,12.505803 46.425851,12.2371364 46,12.0522782 C46.393476,11.8849737 46.737691,11.6199282 47,11.2822782 C47.26154,10.9052659 47.463879,10.4904702 47.6,10.0522782 C47.774291,9.53901063 48.016437,9.05135543 48.32,8.60227823 C48.642498,8.12603453 49.049152,7.71260312 49.52,7.38227823 C50.752955,6.58498182 52.203031,6.1901417 53.67,6.25227823 C54.237478,6.2546919 54.803411,6.3116201 55.36,6.42227823 C55.474038,5.48772393 55.925704,4.62706892 56.63,4.00227823 C57.302754,3.35206526 58.204433,2.99283041 59.14,3.00227823 C60.158396,2.97008312 61.158235,3.27989243 61.98,3.88227823 C62.329114,4.17663313 62.789086,4.30440326 63.24,4.23227823 C63.344175,4.82125874 62.998712,5.39703043 62.43,5.58227823 C62.336667,6.76227823 61.826667,7.35227823 60.9,7.35227823 C60.673523,7.37323637 60.445175,7.34597098 60.23,7.27227823 C60.36099,7.1643307 60.4348,7.00194886 60.43,6.83227823 C60.428709,6.65386122 60.348081,6.48527396 60.21,6.37227823 C60.023333,6.71227823 59.613333,6.88227823 58.98,6.88227823 C58.630869,6.8866155 58.309371,6.69294224 58.15,6.38227823 C58.451996,6.29689583 58.725079,6.13097229 58.94,5.90227823 C59.107465,5.74496812 59.210769,5.53123479 59.23,5.30227823 C59.23,4.82227823 58.976667,4.58227823 58.47,4.58227823 C57.49,4.58227823 56.916667,5.34227823 56.75,6.86227823 C58.191735,7.41205837 59.298873,8.59669661 59.75,10.0722782 C59.944093,10.9511037 60.535215,11.6900064 61.35,12.0722782 C60.821978,12.3108383 60.37654,12.7005961 60.07,13.1922782 C59.972183,13.3812182 59.891849,13.5787072 59.83,13.7822782 C59.479467,15.0913552 58.701626,16.2457971 57.62,17.0622782 C56.467023,17.8065669 55.110973,18.1735393 53.74,18.1122782 C52.852604,18.128133 51.968302,18.0032507 51.12,17.7422782 C50.879824,17.8563876 50.716752,18.0877227 50.69,18.3522782 C50.683403,18.5471222 50.728241,18.7402669 50.82,18.9122782 C50.935508,19.0899775 51.098267,19.2319583 51.29,19.3222782 C52.10145,19.6549083 52.957161,19.8671515 53.83,19.9522782 C54.396667,20.0656115 54.98,19.6989449 55.58,18.8522782 C55.586231,19.2068425 55.690029,19.552836 55.88,19.8522782 C56.004861,20.0457926 56.203697,20.1795554 56.43,20.2222782 C58.836667,20.5822782 60.396667,21.3689449 61.11,22.5822782 C61.376137,23.0649548 61.504154,23.611622 61.48,24.1622782 C61.46856,24.8342001 61.252251,25.4866144 60.86,26.0322782 C60.424448,26.6622032 59.858263,27.19087 59.2,27.5822782 C57.57366,28.4999954 55.726409,28.95316 53.86,28.8922782 C51.880094,29.0109109 49.905467,28.5855533 48.15,27.6622782 C47.133506,27.1359327 46.485411,26.0966796 46.46,24.9522782 C46.505842,24.1293706 46.911907,23.3684559 47.57,22.8722782 C47.82743,22.6621433 48.109509,22.4841646 48.41,22.3422782 L48.41,22.3422782 Z M49.68,15.6622782 C49.838106,15.5620411 49.935668,15.3894309 49.94,15.2022782 C49.940948,14.9824417 49.910645,14.7635864 49.85,14.5522782 C49.37833,12.9393877 49.37833,11.2251687 49.85,9.61227823 C49.902366,9.45042153 49.932639,9.28223573 49.94,9.11227823 L49.94,8.78227823 C49.941656,8.70320703 49.904251,8.62839586 49.84,8.58227823 C49.480794,9.02034683 49.215317,9.52747593 49.06,10.0722782 C48.9,10.6322782 48.77,11.1256115 48.67,11.5522782 C48.636667,11.6856115 48.393333,11.8522782 47.94,12.0522782 C48.4,12.2789449 48.643333,12.4489449 48.67,12.5622782 L48.93,13.6622782 C49.065276,14.3665113 49.318863,15.0427429 49.68,15.6622782 L49.68,15.6622782 Z M49.68,23.2022782 C49.072221,23.4525351 48.696141,24.0672031 48.75,24.7222782 C48.75,25.3156115 49.2,25.8522782 50.1,26.3322782 C51.310252,26.9182822 52.646434,27.1965102 53.99,27.1422782 C55.943333,27.1422782 57.213333,26.8089449 57.8,26.1422782 C57.953879,25.9876498 58.043244,25.7803217 58.05,25.5622782 C58.042976,25.3468649 57.935698,25.1471073 57.76,25.0222782 C57.552225,24.8637876 57.318856,24.7420296 57.07,24.6622782 C56.355124,24.454494 55.621627,24.3171728 54.88,24.2522782 C54.4,24.1989449 53.806667,24.5522782 53.1,25.3122782 C53.130475,24.942702 53.046697,24.5726835 52.86,24.2522782 C52.754111,24.0753215 52.580858,23.9489915 52.38,23.9022782 C51.464027,23.7878475 50.568635,23.5454858 49.72,23.1822782 L49.68,23.2022782 Z M48.97,20.3222782 C48.8854,20.4145601 48.842067,20.5373374 48.85,20.6622782 C48.883333,21.6022782 50.216667,22.3122782 52.85,22.7922782 C53.156667,22.8656115 53.373333,23.1989449 53.5,23.7922782 C53.546667,23.5989449 53.72,23.4389449 54.02,23.3122782 C54.209831,23.2135229 54.416966,23.1524013 54.63,23.1322782 C55.529732,23.2173535 56.422086,23.3677501 57.3,23.5822782 C58.026955,23.7295385 58.686589,24.1084771 59.18,24.6622782 C59.288967,24.5304229 59.345884,24.3632317 59.34,24.1922782 C59.316768,23.9888595 59.220894,23.8006615 59.07,23.6622782 C58.800185,23.4198606 58.478733,23.2420358 58.13,23.1422782 C57.139779,22.8200593 56.116847,22.6087652 55.08,22.5122782 C53.793333,22.3656115 52.893333,22.2356115 52.38,22.1222782 C51.89364,22.0176868 51.415673,21.8773047 50.95,21.7022782 C50.167737,21.4655217 49.487915,20.9723867 49.02,20.3022782 L48.97,20.3222782 Z M52.4,15.7522782 C52.538944,15.978082 52.740423,16.1587184 52.98,16.2722782 C53.417735,16.4208635 53.892265,16.4208635 54.33,16.2722782 C54.525211,16.1928829 54.692325,16.0571023 54.81,15.8822782 C55.110382,15.3288811 55.242464,14.6997535 55.19,14.0722782 L55.19,10.4322782 C55.245041,9.85643103 55.144908,9.27634863 54.9,8.75227823 C54.761056,8.52647444 54.559577,8.34583805 54.32,8.23227823 C53.88239,8.08294186 53.40761,8.08294186 52.97,8.23227823 C52.779252,8.30476916 52.615246,8.43388 52.5,8.60227823 C52.19367,9.15732443 52.058001,9.79044713 52.11,10.4222782 L52.11,14.0522782 C52.069966,14.6326788 52.187436,15.2131175 52.45,15.7322782 L52.4,15.7522782 Z M56.46,15.6622782 C56.86,15.5222782 57.09,15.0889449 57.15,14.3622782 C57.21,13.6356115 57.24,12.8722782 57.24,12.0722782 C57.265685,11.2343012 57.232269,10.3955558 57.14,9.56227823 C57.104158,9.13284053 56.846192,8.75347773 56.46,8.56227823 L56.46,15.6622782 Z" id="Shape"></path>
            <path d="M64.24,19.1614824 C63.960355,18.5229329 63.76537,17.8505716 63.66,17.1614824 C63.622752,16.8046603 63.562628,16.4505984 63.48,16.1014824 C63.430253,15.937208 63.348708,15.784311 63.24,15.6514824 C62.893026,15.2743533 62.470526,14.9745149 62,14.7714824 C62.713337,14.4818359 63.249929,13.874931 63.45,13.1314824 C63.509048,12.9244265 63.555796,12.7140591 63.59,12.5014824 C63.811493,10.9505076 64.625057,9.54558708 65.86,8.58148238 C67.121007,7.53737069 68.713016,6.97715374 70.35,7.00148238 C72.02542,6.96701087 73.657614,7.53473058 74.95,8.60148238 C76.157286,9.57189108 76.947918,10.9671248 77.16,12.5014824 C77.19792,12.9203614 77.316785,13.3278979 77.51,13.7014824 C77.82264,14.1883555 78.276067,14.5685365 78.81,14.7914824 C78.380934,14.9677015 77.990321,15.225846 77.66,15.5514824 C77.417419,15.8693023 77.262275,16.2450955 77.21,16.6414824 C77.068588,18.4122999 76.307285,20.0765428 75.06,21.3414824 C72.264179,23.5512651 68.294936,23.4716288 65.59,21.1514824 C65.014041,20.5829423 64.555359,19.9068114 64.24,19.1614824 L64.24,19.1614824 Z M66.01,19.1614824 C66.119861,19.0870873 66.18693,18.9641276 66.19,18.8314824 C66.180271,18.5841301 66.139965,18.3389329 66.07,18.1014824 C65.787988,17.1702652 65.606947,16.2114181 65.53,15.2414824 C65.523849,14.820887 65.54054,14.4002678 65.58,13.9814824 C65.613333,13.6814824 65.656667,13.3781491 65.71,13.0714824 C65.823333,12.4781491 65.94,11.9548157 66.06,11.5014824 C66.120902,11.3062369 66.161123,11.105133 66.18,10.9014824 C66.196103,10.7283142 66.129354,10.5577329 66,10.4414824 C65.594632,10.9558939 65.307809,11.5534423 65.16,12.1914824 C64.966667,12.9248157 64.81,13.5714824 64.69,14.1314824 C64.643333,14.3648157 64.386667,14.5914824 63.92,14.8114824 C64.393333,15.0314824 64.65,15.2481491 64.69,15.4614824 C64.859914,16.4262786 65.127973,17.3711866 65.49,18.2814824 C65.648373,18.5790282 65.825392,18.8662674 66.02,19.1414824 L66.01,19.1614824 Z M70.37,8.89148238 C68.883333,8.89148238 68.14,9.98148238 68.14,12.1614824 L68.14,17.9614824 C68.14,20.0548157 68.876667,21.1014824 70.35,21.1014824 C71.823333,21.1014824 72.57,20.0548157 72.59,17.9614824 L72.59,12.1614824 C72.603333,9.96814908 71.866667,8.87148238 70.38,8.87148238 L70.37,8.89148238 Z M73.85,19.1614824 C74.283333,18.9948157 74.523333,18.4214824 74.57,17.4414824 C74.616667,16.4614824 74.643333,15.7348157 74.65,15.2614824 C74.65,14.7881491 74.65,14.3914824 74.65,14.0714824 C74.65,13.7514824 74.65,13.4181491 74.65,13.0714824 C74.704745,12.3154179 74.602608,11.5561991 74.35,10.8414824 C74.226522,10.6682674 74.065955,10.5247821 73.88,10.4214824 L73.85,19.1614824 Z" id="Shape"></path>
            <path d="M102.48,13.6223299 C102.329641,13.5465997 102.257344,13.3722367 102.31,13.2123299 C103.047768,11.1238502 102.213499,8.80463542 100.3144,7.66469106 C98.4153013,6.52474669 95.9762047,6.87910583 94.48,8.51232991 L93.38,9.65232991 L93.38,9.65232991 L92.24,8.51232991 C90.7322971,6.94588658 88.3404177,6.63326937 86.4807705,7.75960205 C84.6211233,8.88593474 83.7901786,11.1505202 84.48,13.2123299 C84.5326555,13.3722367 84.4603586,13.5465997 84.31,13.6223299 L84,13.7723299 C84.4736121,13.9858552 84.914646,14.2652889 85.31,14.6023299 C85.89,15.3223299 86.62,16.0823299 86.79,16.2523299 C88.87,18.3723299 93.38,22.8423299 93.39,22.8523299 L93.39,22.8523299 C93.39,22.8523299 97.91,18.3723299 99.99,16.2523299 C100.15,16.0823299 100.89,15.3223299 101.47,14.6023299 C101.862904,14.2619802 102.304442,13.982227 102.78,13.7723299 L102.48,13.6223299 Z M91.48,19.0923299 C90.17,17.7923299 88.71,16.3223299 87.76,15.3523299 C87.4,14.9823299 86.99,14.5323299 86.64,14.1323299 L86.64,14.1323299 C86.3616032,13.9572712 86.0581046,13.8257552 85.74,13.7423299 L85.97,13.7423299 C86.0272442,13.7303627 86.0743185,13.6898119 86.0946301,13.6349707 C86.1149416,13.5801295 86.1056386,13.5186981 86.07,13.4723299 C85.9821871,13.3598268 85.9051795,13.2392932 85.84,13.1123299 C85.506934,12.2880367 85.506934,11.3666231 85.84,10.5423299 L86.65,12.5923299 C86.7765122,12.9145797 86.9631622,13.2098261 87.2,13.4623299 L89.32,15.7123299 C90.0540711,16.4908921 90.6584237,17.3822278 91.11,18.3523299 L91.46,19.1023299 L91.48,19.0923299 Z" id="Shape"></path>
        </g>
    </g>
</svg>