<svg xmlns="http://www.w3.org/2000/svg" viewBox="0 0 152.95 29.25"><defs><style>.cls-1{fill:#09284c;}.cls-2{fill:none;}</style></defs><title>logo</title><g id="Layer_2" data-name="Layer 2"><g id="Layer_3" data-name="Layer 3"><path class="cls-1" d="M2.48,22.08a1.83,1.83,0,0,1-1.11.35,1.47,1.47,0,0,1-1-.32A1,1,0,0,1,0,21.37a1.13,1.13,0,0,1,.13-.62,2.46,2.46,0,0,0,1.2.22q.82,0,1.36-1.11V13.58a1.37,1.37,0,0,0-.26-.92,4.06,4.06,0,0,0-1.34-.93A3.93,3.93,0,0,0,2.29,11a1.75,1.75,0,0,0,.39-1.11V4.33a1.61,1.61,0,0,0-1.61-1,1.16,1.16,0,0,0-.73.22A.75.75,0,0,1,.2,3.09a.94.94,0,0,1,.13-.48,1.45,1.45,0,0,1,.34-.39,2,2,0,0,1,1.24-.34,2.09,2.09,0,0,1,1.33.43,1.25,1.25,0,0,1,1-.43,1.32,1.32,0,0,1,1,.45,1.05,1.05,0,0,1,.78-.45,1.76,1.76,0,0,1,.6.08A1.1,1.1,0,0,1,7,2.16a2.24,2.24,0,0,1,.47.67L15.6,17.46v-4a1.24,1.24,0,0,0-.25-.85A4.77,4.77,0,0,0,14,11.73,4.65,4.65,0,0,0,15.17,11a1.46,1.46,0,0,0,.43-1V4.51a2.54,2.54,0,0,0-.74-.86,1.67,1.67,0,0,0-1-.31,1.82,1.82,0,0,0-.94.22,1.24,1.24,0,0,1-.14-.65.89.89,0,0,1,.41-.72,1.71,1.71,0,0,1,1.06-.31,2.05,2.05,0,0,1,1.17.34,1.72,1.72,0,0,1,1.05-.34,1.68,1.68,0,0,1,1.05.35,1.93,1.93,0,0,1,1.13-.35,1.47,1.47,0,0,1,1,.32,1,1,0,0,1,.37.74,1.13,1.13,0,0,1-.13.62,2.52,2.52,0,0,0-1.22-.22q-.84,0-1.34,1.13V10a1.21,1.21,0,0,0,.24.83,4.76,4.76,0,0,0,1.36.92,6.68,6.68,0,0,0-1.27.8,1.31,1.31,0,0,0-.33.93l.24,6.65A1.57,1.57,0,0,0,19,21a1.17,1.17,0,0,0,.73-.22.75.75,0,0,1,.14.46.94.94,0,0,1-.13.48,1.45,1.45,0,0,1-.34.39,1.82,1.82,0,0,1-1.11.34,2.6,2.6,0,0,1-1.18-.26A1.92,1.92,0,0,1,15,22.08a1.27,1.27,0,0,1-.8.35,1.79,1.79,0,0,1-.56-.07.86.86,0,0,1-.34-.24,6.22,6.22,0,0,1-.77-1.24L4.52,7V19.87Q5.05,21,5.88,21a2.48,2.48,0,0,0,1.2-.22,1.24,1.24,0,0,1,.14.65.89.89,0,0,1-.41.72,1.69,1.69,0,0,1-1,.31,2.22,2.22,0,0,1-1.18-.33,1.85,1.85,0,0,1-1.08.33A1.59,1.59,0,0,1,2.48,22.08ZM12.72,18.7a.61.61,0,0,0,.09-.37,2.68,2.68,0,0,0-.07-.58,6,6,0,0,0-.2-.69,13.6,13.6,0,0,0-.72-1.57L6.26,5.8a1.05,1.05,0,0,0-.09.52A7.45,7.45,0,0,0,7.28,9.17Z"/><path class="cls-1" d="M24.47,22a2.34,2.34,0,0,1-1.37.42A1.65,1.65,0,0,1,22,22.1a.94.94,0,0,1-.37-.65,1.12,1.12,0,0,1,.18-.68,1.38,1.38,0,0,0,.85.22q.56,0,1-.73V16.07a1.23,1.23,0,0,0-.24-.84A5.16,5.16,0,0,0,22,14.35a4.62,4.62,0,0,0,1.17-.67,1.44,1.44,0,0,0,.43-1.06V10.71q0-1.11-.76-1.21a5.06,5.06,0,0,0-.56,0,1,1,0,0,0-.63.22.86.86,0,0,1-.18-.52,1.6,1.6,0,0,1,.14-.6A2.06,2.06,0,0,1,22,8a2.12,2.12,0,0,1,1.57-.71,4,4,0,0,1,1.61.31,1.84,1.84,0,0,1,1.47-.84Q28,6.72,28,8.13v4.49a1.24,1.24,0,0,0,.28.9,4.62,4.62,0,0,0,1.32.83,5.55,5.55,0,0,0-1.23.73,1.41,1.41,0,0,0-.37,1v4.22A1.2,1.2,0,0,0,29,21a1.35,1.35,0,0,0,.84-.22,1,1,0,0,1,.18.62,1,1,0,0,1-.37.71,1.61,1.61,0,0,1-1.12.34A2.49,2.49,0,0,1,27.14,22a2,2,0,0,1-1.3.42A2.39,2.39,0,0,1,24.47,22ZM25.78,4.85a2.57,2.57,0,0,1-1.29-.35,2.43,2.43,0,0,1-.95-.94,2.38,2.38,0,0,0-.94-.92l-.42-.2.45-.28a2.56,2.56,0,0,0,.93-1,2.12,2.12,0,0,1,.91-.88A2.78,2.78,0,0,1,25.78,0,2.23,2.23,0,0,1,27.9,1.23a2.71,2.71,0,0,0,1.38,1.21l-.39.21a2.69,2.69,0,0,0-.36.21,2.32,2.32,0,0,0-.67.77,2.51,2.51,0,0,1-.85.86A2.24,2.24,0,0,1,25.78,4.85Zm-.69-1.6A1.23,1.23,0,0,1,25,2.91a3.28,3.28,0,0,1,0-.67A2.42,2.42,0,0,1,25.41,1a1,1,0,0,0-.68.18,2.6,2.6,0,0,0-.29.3,2.12,2.12,0,0,0-.17.25,3.11,3.11,0,0,1-.18.27,1.4,1.4,0,0,1-.41.43,1.19,1.19,0,0,1,.39.37,6.49,6.49,0,0,0,.41.53,1.14,1.14,0,0,0,.93.43l-.16-.27Zm.52,12.57q0-.45,0-.75c0-.2,0-.36,0-.48v-.35q0-.2,0-.51t0-.69q0-.38,0-.75A8.81,8.81,0,0,0,25.45,11a1.55,1.55,0,0,0-.6-1v.85a17.81,17.81,0,0,1-.1,2.6,1.1,1.1,0,0,1-.31.58,1.9,1.9,0,0,1-.64.33q.79.28.89.67a15.34,15.34,0,0,1,.16,2.84v.85a2,2,0,0,0,.68-1.61Q25.59,16.25,25.6,15.81Z"/><path class="cls-1" d="M42.36,18.22a1.09,1.09,0,0,1,1.06-.55.92.92,0,0,1,.81.43,1.43,1.43,0,0,1,.24.83,2.25,2.25,0,0,1-.24,1,3.34,3.34,0,0,1-.65.9,4.69,4.69,0,0,1-.94.72,6.21,6.21,0,0,1-1.13.52A7.55,7.55,0,0,1,39,22.5a6.76,6.76,0,0,1-2.5-.46,6,6,0,0,1-2-1.3,7.42,7.42,0,0,1-2.07-4.53,2,2,0,0,0-.3-.92,3.84,3.84,0,0,0-1.3-.93,2.68,2.68,0,0,0,1.6-2.27,5.77,5.77,0,0,1,2.23-4A6.92,6.92,0,0,1,39,6.72a5.47,5.47,0,0,1,3.77,1.36,3.87,3.87,0,0,1,1.45,3,1.16,1.16,0,0,0,.67,1.22,1.23,1.23,0,0,1-1.1.64,1.9,1.9,0,0,1-.46-.05,2.28,2.28,0,0,1-1.85,1,2.17,2.17,0,0,1-.59-.1.89.89,0,0,1-.47-.27q.38-.16.45-.79h-.25q-.89,0-1.1-1a1.52,1.52,0,0,0,1.41-.75,1.22,1.22,0,0,0,.16-.64A1.67,1.67,0,0,0,40.55,9a2.17,2.17,0,0,0-1.49-.48q-2.21,0-2.21,2.86v6.37a2.63,2.63,0,0,0,1.7,2.82,3.24,3.24,0,0,0,1.13.18,3.93,3.93,0,0,0,1.15-.16,2.66,2.66,0,0,0,.87-.43,1.74,1.74,0,0,0,.72-1.43A2,2,0,0,0,42.36,18.22Zm-7.7.48a.41.41,0,0,0,.18-.33,3,3,0,0,0-.12-.73,13.57,13.57,0,0,1-.54-2.86,11.62,11.62,0,0,1,.05-1.26q.05-.45.14-.91.16-.89.34-1.57a2.92,2.92,0,0,0,.12-.6.55.55,0,0,0-.18-.46,4.45,4.45,0,0,0-.84,1.75q-.29,1.1-.47,1.94-.07.34-.77.67.71.33.77.67a14.38,14.38,0,0,0,.8,2.82A8,8,0,0,0,34.66,18.7Z"/><path class="cls-1" d="M79.23,22.44A2.82,2.82,0,0,1,77.69,22a2.37,2.37,0,0,1-1.24.42,3.71,3.71,0,0,1-.94-.1,2.4,2.4,0,0,1-.64-.27,1,1,0,0,1-.56-.85.75.75,0,0,1,.14-.46,1.16,1.16,0,0,0,.73.22,1.62,1.62,0,0,0,1.61-1v-6.4a1.34,1.34,0,0,0-.25-.89,4,4,0,0,0-1.35-1A3.49,3.49,0,0,0,76.36,11a1.71,1.71,0,0,0,.45-1.15V4.33a1.61,1.61,0,0,0-1.61-1,1.16,1.16,0,0,0-.73.22.74.74,0,0,1-.14-.45.84.84,0,0,1,.15-.48,1.29,1.29,0,0,1,.41-.38,2.61,2.61,0,0,1,1.38-.37,2.55,2.55,0,0,1,1.43.43,2.66,2.66,0,0,1,1.45-.43,3.14,3.14,0,0,1,1.42.33,10.13,10.13,0,0,1,2.87-.46,17,17,0,0,1,2.34.14,8.79,8.79,0,0,1,2,.5,7.55,7.55,0,0,1,1.75,1,6.59,6.59,0,0,1,1.46,1.51,10.74,10.74,0,0,1,1.74,5A2.15,2.15,0,0,0,93,11a2.47,2.47,0,0,0,1.14.76,2.36,2.36,0,0,0-1,.59,2.38,2.38,0,0,0-.47,1.26,10.27,10.27,0,0,1-2.92,6.71,8.66,8.66,0,0,1-6.22,2.28,7.58,7.58,0,0,1-2.75-.47A3.1,3.1,0,0,1,79.23,22.44ZM78.06,18.7q.65-.25.72-1.72t.08-4.06q0-2.59,0-3.45t0-1.38a4,4,0,0,0-.29-1.87,1.47,1.47,0,0,0-.48-.43A41.83,41.83,0,0,1,77.9,11a1.25,1.25,0,0,1-.89.75q.79.28.89.67a33.91,33.91,0,0,1,.16,4.6Zm3.56,1.41a2.12,2.12,0,0,0,1.67.71,3.76,3.76,0,0,0,1.81-.41,3.41,3.41,0,0,0,1.29-1.28,11.16,11.16,0,0,0,1.06-5.55,1.77,1.77,0,0,0-.26-1.13A2.76,2.76,0,0,0,86,11.73a2.51,2.51,0,0,0,1-.55,1.81,1.81,0,0,0,.39-1.2,10,10,0,0,0-.1-1.45A8.72,8.72,0,0,0,87,7.11a8.3,8.3,0,0,0-.58-1.36,5,5,0,0,0-.83-1.15,3.38,3.38,0,0,0-2.5-1.09l-.86,0a.81.81,0,0,0-.62.26ZM88.13,5.8a14.3,14.3,0,0,1,1,4.69,1.52,1.52,0,0,1-.11.79,1.6,1.6,0,0,1-.24.21,2.12,2.12,0,0,1-.51.25q.79.35.83.68a1.59,1.59,0,0,1,0,.29V13a15.81,15.81,0,0,1-.37,3.43q-.37,1.66-.55,2.25a1.31,1.31,0,0,0,.86-.78,9.19,9.19,0,0,0,.46-1.31,13.19,13.19,0,0,0,.31-1.49,21,21,0,0,0,.26-3.37,11.73,11.73,0,0,0-.93-5.07A1.57,1.57,0,0,0,88.13,5.8Z"/><path class="cls-1" d="M97.76,22a2.34,2.34,0,0,1-1.37.42,1.65,1.65,0,0,1-1.14-.34.94.94,0,0,1-.37-.65,1.12,1.12,0,0,1,.18-.68,1.38,1.38,0,0,0,.85.22q.56,0,1-.73V16.07a1.23,1.23,0,0,0-.24-.84,5.16,5.16,0,0,0-1.36-.88,4.62,4.62,0,0,0,1.17-.67,1.44,1.44,0,0,0,.43-1.06V10.71q0-1.11-.76-1.21a5.06,5.06,0,0,0-.56,0,1,1,0,0,0-.63.22.86.86,0,0,1-.18-.52,1.6,1.6,0,0,1,.14-.6A2.06,2.06,0,0,1,95.31,8a2.12,2.12,0,0,1,1.57-.71,4,4,0,0,1,1.61.31A1.84,1.84,0,0,1,100,6.72q1.35,0,1.35,1.41v4.49a1.24,1.24,0,0,0,.28.9,4.62,4.62,0,0,0,1.32.83,5.55,5.55,0,0,0-1.23.73,1.41,1.41,0,0,0-.37,1v4.22a1.2,1.2,0,0,0,1,.69,1.35,1.35,0,0,0,.84-.22,1,1,0,0,1,.18.62,1,1,0,0,1-.37.71,1.61,1.61,0,0,1-1.12.34,2.49,2.49,0,0,1-1.39-.42,2,2,0,0,1-1.3.42A2.39,2.39,0,0,1,97.76,22ZM99.07,4.85a2.57,2.57,0,0,1-1.29-.35,2.43,2.43,0,0,1-.95-.94,2.38,2.38,0,0,0-.94-.92l-.42-.2.45-.28a2.56,2.56,0,0,0,.93-1,2.12,2.12,0,0,1,.91-.88A2.78,2.78,0,0,1,99.07,0a2.23,2.23,0,0,1,2.12,1.23,2.71,2.71,0,0,0,1.38,1.21l-.39.21a2.69,2.69,0,0,0-.36.21,2.32,2.32,0,0,0-.67.77,2.51,2.51,0,0,1-.85.86A2.24,2.24,0,0,1,99.07,4.85Zm-.69-1.6a1.23,1.23,0,0,1-.12-.33,3.28,3.28,0,0,1,0-.67A2.42,2.42,0,0,1,98.7,1a1,1,0,0,0-.68.18,2.6,2.6,0,0,0-.29.3,2.12,2.12,0,0,0-.17.25,3.11,3.11,0,0,1-.18.27,1.4,1.4,0,0,1-.41.43,1.19,1.19,0,0,1,.39.37,6.49,6.49,0,0,0,.41.53,1.14,1.14,0,0,0,.93.43l-.16-.27Zm.52,12.57q0-.45,0-.75c0-.2,0-.36,0-.48v-.35q0-.2,0-.51t0-.69q0-.38,0-.75A8.81,8.81,0,0,0,98.74,11a1.55,1.55,0,0,0-.6-1v.85a17.81,17.81,0,0,1-.1,2.6,1.1,1.1,0,0,1-.31.58,1.9,1.9,0,0,1-.64.33q.79.28.89.67a15.34,15.34,0,0,1,.16,2.84v.85a2,2,0,0,0,.68-1.61Q98.89,16.25,98.89,15.81Z"/><path class="cls-1" d="M116.17,18.22a1.09,1.09,0,0,1,1.06-.55.92.92,0,0,1,.81.43,1.43,1.43,0,0,1,.24.83,2.2,2.2,0,0,1-.25,1,3.2,3.2,0,0,1-.68.9,5.08,5.08,0,0,1-1,.72,6.73,6.73,0,0,1-1.19.52,8.48,8.48,0,0,1-2.7.43,7.34,7.34,0,0,1-2.63-.46,6.17,6.17,0,0,1-2.1-1.3,7.41,7.41,0,0,1-2.1-4.53,2,2,0,0,0-.3-.92,3.84,3.84,0,0,0-1.3-.93,2.46,2.46,0,0,0,1.45-1.64,5.35,5.35,0,0,0,.14-.63A6,6,0,0,1,108,8.16a6.71,6.71,0,0,1,4.33-1.57,6,6,0,0,1,4.31,1.75,5.91,5.91,0,0,1,1.89,4.44c0,.06,0,.12,0,.18a.73.73,0,0,0,0,.17.22.22,0,0,0,.21.2A1,1,0,0,1,119,14a.88.88,0,0,1-.84.93l-.65.1-7.39,1.18v1.26a3.2,3.2,0,0,0,.92,2.41,3,3,0,0,0,2.19.85,4,4,0,0,0,2.25-.58,1.68,1.68,0,0,0,.8-1.44A2,2,0,0,0,116.17,18.22Zm-8.23.48a.41.41,0,0,0,.18-.33,3,3,0,0,0-.12-.73,13.57,13.57,0,0,1-.54-2.86,11.62,11.62,0,0,1,.05-1.26q.05-.45.14-.91.16-.89.34-1.57a2.92,2.92,0,0,0,.12-.6.55.55,0,0,0-.18-.46,4.45,4.45,0,0,0-.84,1.75q-.29,1.1-.47,1.94-.07.35-.77.68.71.33.77.65a14.38,14.38,0,0,0,.8,2.82A8,8,0,0,0,107.95,18.7ZM113.88,14V10.32a2,2,0,0,0-.34-1.27,1.65,1.65,0,0,0-1.19-.69,2.4,2.4,0,0,0-1,.18,1.76,1.76,0,0,0-.68.56,4.14,4.14,0,0,0-.6,2.49v3Zm1.94-.33v-.41a6.11,6.11,0,0,0-.41-2.95A1.19,1.19,0,0,0,115,10v3.81Z"/><path class="cls-1" d="M122.34,22.68a2.79,2.79,0,0,1-.94-2.15q0-1.91,2.27-3.14a5.92,5.92,0,0,1-2.16-3.27,2.79,2.79,0,0,0-.45-.94,3.46,3.46,0,0,0-1.13-.79,2.51,2.51,0,0,0,1-.77,4.5,4.5,0,0,0,.6-1.23,6.08,6.08,0,0,1,.72-1.45,4.73,4.73,0,0,1,1.2-1.22,7.09,7.09,0,0,1,4.15-1.13,8.86,8.86,0,0,1,1.69.17,3.86,3.86,0,0,1,1.27-2.42,3.56,3.56,0,0,1,2.51-1,4.56,4.56,0,0,1,2.84.88,1.57,1.57,0,0,0,1.26.35,1.2,1.2,0,0,1-.81,1.35q-.14,1.77-1.53,1.77a1.61,1.61,0,0,1-.67-.08.55.55,0,0,0,.2-.44.6.6,0,0,0-.22-.46q-.28.51-1.23.51a.92.92,0,0,1-.83-.5,1.73,1.73,0,0,0,.79-.48.93.93,0,0,0,.29-.6q0-.72-.76-.72-1.47,0-1.72,2.28a5,5,0,0,1,3,3.21,2.9,2.9,0,0,0,1.6,2A2.93,2.93,0,0,0,134,13.53a3.49,3.49,0,0,0-.24.59,6.08,6.08,0,0,1-2.21,3.28,6.61,6.61,0,0,1-3.88,1.05,8.4,8.4,0,0,1-2.62-.37.76.76,0,0,0-.43.61,1.11,1.11,0,0,0,.13.56,1.14,1.14,0,0,0,.47.41,9,9,0,0,0,2.54.63q.85.17,1.75-1.1a1.93,1.93,0,0,0,.3,1,.84.84,0,0,0,.55.37q3.61.54,4.68,2.36a3,3,0,0,1,.37,1.58,3.3,3.3,0,0,1-.62,1.87,5.33,5.33,0,0,1-1.66,1.55,10.19,10.19,0,0,1-5.34,1.31A10.87,10.87,0,0,1,122.08,28a3.13,3.13,0,0,1-1.69-2.71,2.8,2.8,0,0,1,1.11-2.08A4.09,4.09,0,0,1,122.34,22.68ZM123.61,16a.56.56,0,0,0,.26-.46,2.32,2.32,0,0,0-.09-.65,8.8,8.8,0,0,1,0-4.94,1.89,1.89,0,0,0,.09-.5V9.12a.24.24,0,0,0-.1-.2,4.14,4.14,0,0,0-.78,1.49q-.24.84-.39,1.48-.05.2-.73.5.69.34.73.51l.26,1.1A6.35,6.35,0,0,0,123.61,16Zm0,7.54a1.51,1.51,0,0,0-.93,1.52q0,.89,1.35,1.61a8.17,8.17,0,0,0,3.89.81q2.93,0,3.81-1a.86.86,0,0,0,.25-.58.69.69,0,0,0-.29-.54A2.29,2.29,0,0,0,131,25a11.41,11.41,0,0,0-2.19-.41q-.72-.08-1.78,1.06a1.81,1.81,0,0,0-.24-1.06.76.76,0,0,0-.48-.35A9.87,9.87,0,0,1,123.65,23.52Zm-.71-2.88a.46.46,0,0,0-.12.34q.05,1.41,4,2.13.46.11.65,1,.07-.29.52-.48a1.66,1.66,0,0,1,.61-.18,18.64,18.64,0,0,1,2.67.45A3.43,3.43,0,0,1,133.11,25a.7.7,0,0,0,.16-.47A.85.85,0,0,0,133,24a2.39,2.39,0,0,0-.94-.52,14.07,14.07,0,0,0-3.05-.63q-1.93-.22-2.7-.39a10.1,10.1,0,0,1-1.43-.42A3.64,3.64,0,0,1,122.95,20.64Zm3.43-4.57a1.37,1.37,0,0,0,.58.52,2.1,2.1,0,0,0,1.35,0,1.06,1.06,0,0,0,.48-.39,3.23,3.23,0,0,0,.38-1.81V10.77a3.24,3.24,0,0,0-.29-1.68,1.37,1.37,0,0,0-.58-.52,2.09,2.09,0,0,0-1.35,0,1,1,0,0,0-.47.37,3.22,3.22,0,0,0-.39,1.82v3.63A3.23,3.23,0,0,0,126.38,16.07Zm4.06-.09q.6-.21.69-1.3t.09-2.29a17.84,17.84,0,0,0-.1-2.51,1.23,1.23,0,0,0-.68-1Z"/><path class="cls-1" d="M138.43,18.72a8,8,0,0,1-.58-2,8.38,8.38,0,0,0-.18-1.06,1.31,1.31,0,0,0-.24-.45,3.65,3.65,0,0,0-1.24-.88,2.46,2.46,0,0,0,1.45-1.64,5.46,5.46,0,0,0,.14-.63,6.06,6.06,0,0,1,2.27-3.92,6.88,6.88,0,0,1,4.49-1.58,7,7,0,0,1,4.6,1.6,6.07,6.07,0,0,1,2.21,3.9,3.25,3.25,0,0,0,.35,1.2A2.85,2.85,0,0,0,153,14.35a3.57,3.57,0,0,0-1.15.76,2.29,2.29,0,0,0-.45,1.09,7.55,7.55,0,0,1-2.15,4.7,7.45,7.45,0,0,1-9.47-.19A6.18,6.18,0,0,1,138.43,18.72Zm1.77,0a.41.41,0,0,0,.18-.33,3,3,0,0,0-.12-.73,13.57,13.57,0,0,1-.54-2.86,11.62,11.62,0,0,1,.05-1.26q.05-.45.13-.91.17-.89.35-1.57a2.92,2.92,0,0,0,.12-.6.55.55,0,0,0-.18-.46,4.45,4.45,0,0,0-.84,1.75q-.29,1.1-.47,1.94-.07.35-.77.68.71.33.77.65a14.38,14.38,0,0,0,.8,2.82A8,8,0,0,0,140.21,18.7Zm4.36-10.27q-2.23,0-2.23,3.27v5.8q0,3.14,2.21,3.14t2.24-3.14v-5.8Q146.8,8.43,144.57,8.43Zm3.48,10.27q.65-.25.72-1.72t.08-2.18q0-.71,0-1.19t0-1a5.5,5.5,0,0,0-.3-2.23,1.43,1.43,0,0,0-.47-.42Z"/><path class="cls-2" d="M55.81,15.28,53.68,13a2.73,2.73,0,0,1-.55-.87l-.81-2.05a0,0,0,0,0,0,0,3.43,3.43,0,0,0,0,2.57,2.27,2.27,0,0,0,.23.36.17.17,0,0,1-.1.27l-.23,0a3.23,3.23,0,0,1,.9.39v0c.35.41.75.85,1.12,1.22.94,1,2.41,2.43,3.72,3.74h0l-.35-.75A10,10,0,0,0,55.81,15.28Z"/><path class="cls-1" d="M69,13.21a.34.34,0,0,1-.17-.41A4.66,4.66,0,0,0,61,8.1L59.9,9.24h0L58.76,8.1A4.65,4.65,0,0,0,51,12.8a.34.34,0,0,1-.17.41l-.31.15a5.51,5.51,0,0,1,1.31.83c.58.72,1.31,1.48,1.48,1.65,2.08,2.12,6.59,6.59,6.6,6.6h0s4.52-4.48,6.6-6.6c.16-.17.9-.93,1.48-1.65a5.22,5.22,0,0,1,1.31-.83Zm-11,5.47c-1.31-1.3-2.77-2.77-3.72-3.74-.36-.37-.77-.82-1.12-1.22v0a3.23,3.23,0,0,0-.9-.39l.23,0a.17.17,0,0,0,.1-.27,2.27,2.27,0,0,1-.23-.36,3.43,3.43,0,0,1,0-2.57,0,0,0,0,1,0,0l.81,2.05a2.73,2.73,0,0,0,.55.87l2.12,2.25a10,10,0,0,1,1.79,2.64l.35.75Z"/></g></g></svg>