<?xml version="1.0" encoding="UTF-8"?>
<svg width="153px" height="30px" viewBox="0 0 153 30" version="1.1" xmlns="http://www.w3.org/2000/svg" xmlns:xlink="http://www.w3.org/1999/xlink">
    <!-- Generator: Sketch 45.2 (43514) - http://www.bohemiancoding.com/sketch -->
    <title>logo</title>
    <desc>Created with Sketch.</desc>
    <defs></defs>
    <g id="Page-1" stroke="none" stroke-width="1" fill="none" fill-rule="evenodd">
        <g id="logo" transform="translate(-1.000000, -1.000000)" fill-rule="nonzero" fill="#FFFFFF">
            <path d="M3.48,23.08 C3.15794731,23.3143524 2.76822935,23.4372364 2.37,23.43 C2.00863972,23.4500714 1.65257556,23.3361308 1.37,23.11 C1.14562585,22.9283106 1.01072704,22.658513 1,22.37 C0.983333035,22.1551656 1.02843905,21.9400446 1.13,21.75 C1.50518183,21.9229305 1.91787267,21.9985904 2.33,21.97 C2.87666667,21.97 3.33,21.6 3.69,20.86 L3.69,14.58 C3.71661776,14.2520619 3.62432769,13.925497 3.43,13.66 C3.05084481,13.262544 2.59497995,12.9461601 2.09,12.73 C2.53059155,12.5607019 2.93708251,12.3134199 3.29,12 C3.54420644,11.6860968 3.68199797,11.2939209 3.68,10.89 L3.68,5.33 C3.41716781,4.6826349 2.76679874,4.27867895 2.07,4.33 C1.80882917,4.31898681 1.55159442,4.39650961 1.34,4.55 C1.24411421,4.41618665 1.1949182,4.25454262 1.2,4.09 C1.1994574,3.92123093 1.24436221,3.75542854 1.33,3.61 C1.41903556,3.46066767 1.53420195,3.32856504 1.67,3.22 C2.03464327,2.9732716 2.47051046,2.85375963 2.91,2.88 C3.38954512,2.86644184 3.8591567,3.01827114 4.24,3.31 C4.49014632,3.02143446 4.85848204,2.8630501 5.24,2.88 C5.62281655,2.87789477 5.98769107,3.0420883 6.24,3.33 C6.41921795,3.07046406 6.70561007,2.90523784 7.02,2.88 C7.22311925,2.87181586 7.42612093,2.89888275 7.62,2.96 C7.75857568,3.00105512 7.88770239,3.06901655 8,3.16 C8.19648236,3.35257533 8.35580776,3.57969877 8.47,3.83 L16.6,18.46 L16.6,14.46 C16.6241877,14.1555474 16.5351672,13.8528776 16.35,13.61 C15.9531649,13.2422257 15.4966516,12.9446467 15,12.73 C15.4241156,12.5461721 15.8184512,12.3001337 16.17,12 C16.4368818,11.7345598 16.5909332,11.3763007 16.6,11 L16.6,5.51 C16.4213304,5.17120577 16.1683536,4.87720571 15.86,4.65 C15.5685113,4.44215105 15.2179445,4.33347533 14.86,4.34 C14.5325754,4.32737879 14.2078164,4.40338623 13.92,4.56 C13.8150304,4.36011845 13.7666234,4.1353715 13.78,3.91 C13.7898066,3.61713953 13.9431398,3.3478716 14.19,3.19 C14.4993206,2.97227048 14.8721048,2.86324868 15.25,2.88 C15.6654449,2.87213922 16.0734705,2.99071079 16.42,3.22 C16.7231488,2.99440234 17.092154,2.87491495 17.47,2.88 C17.8494864,2.87471659 18.2195809,2.99808144 18.52,3.23 C18.850745,2.9979278 19.2459832,2.87550889 19.65,2.88 C20.0113603,2.85992862 20.3674244,2.97386915 20.65,3.2 C20.8743742,3.38168941 21.009273,3.65148703 21.02,3.94 C21.036667,4.15483436 20.9915609,4.36995536 20.89,4.56 C20.5079966,4.38622335 20.0886414,4.31060193 19.67,4.34 C19.11,4.34 18.6633333,4.71666667 18.33,5.47 L18.33,11 C18.3051309,11.2967744 18.390583,11.5922962 18.57,11.83 C18.9666196,12.2131299 19.4267979,12.5244269 19.93,12.75 C19.4779564,12.9681083 19.0519345,13.2364686 18.66,13.55 C18.4329812,13.805134 18.3145708,14.1388361 18.33,14.48 L18.57,21.13 C18.8394378,21.6711059 19.3955972,22.0094686 20,22 C20.2610718,22.0102317 20.5180563,21.9327843 20.73,21.78 C20.8258858,21.9138134 20.8750818,22.0754574 20.87,22.24 C20.8705426,22.4087691 20.8256378,22.5745715 20.74,22.72 C20.6509644,22.8693323 20.535798,23.001435 20.4,23.11 C20.0770345,23.3414626 19.6871944,23.4608731 19.29,23.45 C18.8817066,23.4572015 18.4774577,23.3681297 18.11,23.19 C17.4479136,23.5784157 16.6181088,23.5351558 16,23.08 C15.7830846,23.287557 15.4996533,23.4115582 15.2,23.43 C15.0108062,23.4364251 14.8217909,23.4127982 14.64,23.36 C14.508727,23.3090423 14.3919753,23.2266293 14.3,23.12 C13.9955571,22.738319 13.7371114,22.3221207 13.53,21.88 L5.52,8 L5.52,20.87 C5.87333333,21.6233333 6.32666667,22 6.88,22 C7.29207878,22.0277327 7.70455929,21.9521113 8.08,21.78 C8.18496958,21.9798816 8.23337662,22.2046285 8.22,22.43 C8.21019337,22.7228605 8.05686025,22.9921284 7.81,23.15 C7.5178844,23.3565805 7.16774401,23.465124 6.81,23.46 C6.39349781,23.4628727 5.98458823,23.3485166 5.63,23.13 C5.31319296,23.349874 4.93559528,23.4652511 4.55,23.46 C4.15871991,23.4693453 3.77773994,23.334044 3.48,23.08 Z M13.72,19.7 C13.7887127,19.5894299 13.8202498,19.4597772 13.81,19.33 C13.8078715,19.1346935 13.7843988,18.9402049 13.74,18.75 C13.6871749,18.5162118 13.6203885,18.2857988 13.54,18.06 C13.3335081,17.5219397 13.0930233,16.9975491 12.82,16.49 L7.26,6.8 C7.18622015,6.96284482 7.15524172,7.14183128 7.17,7.32 C7.33891255,8.33654358 7.71687638,9.30699126 8.28,10.17 L13.72,19.7 Z" id="Shape"></path>
            <path d="M25.47,23 C25.0684896,23.279819 24.5893509,23.4267082 24.1,23.42 C23.706883,23.4481307 23.3166812,23.3346174 23,23.1 C22.7920676,22.943839 22.6581157,22.7085181 22.63,22.45 C22.6154166,22.2098846 22.6785305,21.9714543 22.81,21.77 C23.0618267,21.9339151 23.3602715,22.0111597 23.66,21.99 C24.0333333,21.99 24.3666667,21.7466667 24.66,21.26 L24.66,17.07 C24.6854807,16.7700656 24.6000904,16.4711998 24.42,16.23 C23.9976079,15.8614836 23.5179903,15.5642558 23,15.35 C23.4206648,15.1850814 23.8148614,14.9593449 24.17,14.68 C24.4535441,14.4011951 24.6091741,14.0175491 24.6,13.62 L24.6,11.71 C24.6,10.97 24.3466667,10.5666667 23.84,10.5 C23.6534764,10.4896627 23.4665236,10.4896627 23.28,10.5 C23.0510047,10.499036 22.8286159,10.5766957 22.65,10.72 C22.5346689,10.5710582 22.4714303,10.388369 22.47,10.2 C22.477355,9.9928188 22.5249031,9.78904142 22.61,9.6 C22.704,9.37877874 22.8359911,9.17571546 23,9 C23.3992182,8.55173963 23.9697512,8.29372791 24.57,8.29 C25.1223147,8.28105695 25.6704953,8.38660725 26.18,8.6 C26.5044279,8.09780398 27.0526293,7.78454604 27.65,7.76 C28.55,7.73333333 29,8.19 29,9.13 L29,13.62 C28.9712323,13.9451606 29.0718422,14.2685496 29.28,14.52 C29.669797,14.8694553 30.1161528,15.1501184 30.6,15.35 C30.1602297,15.5392622 29.7467973,15.7846326 29.37,16.08 C29.1205276,16.3520529 28.9876854,16.7110859 29,17.08 L29,21.3 C29.1808973,21.6981037 29.564025,21.9662931 30,22 C30.2965873,22.0211742 30.5918685,21.9438387 30.84,21.78 C30.9668967,21.9610821 31.030197,22.1791165 31.02,22.4 C31.0009229,22.6778659 30.8668263,22.9351865 30.65,23.11 C30.3325436,23.3598323 29.9327677,23.4811929 29.53,23.45 C29.0320934,23.4423648 28.5479129,23.2856158 28.14,23 C27.7693973,23.288249 27.3091985,23.4369285 26.84,23.42 C26.3511251,23.4234154 25.8729617,23.2768252 25.47,23 Z M26.78,5.85 C26.3266565,5.84915241 25.881604,5.72840171 25.49,5.5 C25.0917005,5.28161703 24.7625854,4.95596636 24.54,4.56 C24.3193089,4.1711219 23.9935337,3.8522781 23.6,3.64 L23.18,3.44 L23.63,3.16 C24.0248286,2.91702468 24.3462659,2.57139315 24.56,2.16 C24.7666328,1.78083517 25.0841238,1.47381084 25.47,1.28 C25.8773155,1.08128159 26.3270379,0.985157706 26.78,1 C27.6688308,0.950086978 28.5021935,1.43359458 28.9,2.23 C29.2052623,2.78156531 29.6932657,3.2094523 30.28,3.44 L29.89,3.65 C29.7647497,3.71058462 29.6443886,3.78079529 29.53,3.86 C29.2522754,4.06374723 29.0234038,4.32677879 28.86,4.63 C28.6509815,4.98165 28.3591814,5.27688307 28.01,5.49 C27.6438114,5.72723149 27.2163111,5.85235353 26.78,5.85 L26.78,5.85 Z M26.09,4.25 C26.0438678,4.14156311 26.013558,4.02705947 26,3.91 C25.9771302,3.68725214 25.9771302,3.46274786 26,3.24 C26.0204424,2.79690277 26.1622745,2.36794719 26.41,2 C26.1690143,1.97566829 25.9273877,2.03962826 25.73,2.18 C25.6254524,2.27206936 25.5284735,2.37239233 25.44,2.48 C25.3774561,2.5591815 25.320645,2.64272721 25.27,2.73 C25.2147394,2.82307103 25.1546576,2.91319368 25.09,3 C24.9856718,3.17101613 24.8458571,3.31765105 24.68,3.43 C24.836521,3.52197033 24.9699247,3.64853284 25.07,3.8 C25.1974492,3.98360874 25.3342983,4.16051113 25.48,4.33 C25.7044956,4.61241595 26.0494234,4.77189873 26.41,4.76 L26.25,4.49 L26.09,4.25 Z M26.61,16.82 C26.61,16.52 26.61,16.27 26.61,16.07 C26.61,15.87 26.61,15.71 26.61,15.59 L26.61,15.24 C26.61,15.1066667 26.61,14.9366667 26.61,14.73 C26.61,14.5233333 26.61,14.2933333 26.61,14.04 C26.61,13.7866667 26.61,13.5366667 26.61,13.29 C26.5885052,12.8566467 26.5350263,12.4254734 26.45,12 C26.387804,11.6012696 26.1725523,11.2425167 25.85,11 L25.85,11.85 C25.880103,12.7179456 25.8466805,13.5869307 25.75,14.45 C25.7082299,14.670422 25.6000611,14.8728024 25.44,15.03 C25.2496516,15.1797889 25.0324178,15.2918001 24.8,15.36 C25.3266667,15.5466667 25.6233333,15.77 25.69,16.03 C25.8311781,16.969668 25.8847416,17.9204211 25.85,18.87 L25.85,19.72 C26.3115651,19.3160059 26.562218,18.7225485 26.53,18.11 C26.57,17.5366667 26.5933333,17.1033333 26.6,16.81 L26.61,16.82 Z" id="Shape"></path>
            <path d="M43.36,19.22 C43.5725368,18.842203 43.9887362,18.6262504 44.42,18.67 C44.7472865,18.658959 45.0557714,18.8227226 45.23,19.1 C45.3936663,19.3453027 45.4774936,19.6352053 45.47,19.93 C45.4682718,20.2773913 45.3861263,20.6196642 45.23,20.93 C45.065058,21.2641603 44.845357,21.5683616 44.58,21.83 C44.2983424,22.1087479 43.9824925,22.3506755 43.64,22.55 C43.2816863,22.760716 42.903121,22.934923 42.51,23.07 C41.7037156,23.3544184 40.8549785,23.4998195 40,23.5 C39.1450759,23.5061354 38.2967473,23.3500429 37.5,23.04 C36.7530458,22.7448904 36.072941,22.3028222 35.5,21.74 C34.3086919,20.5135902 33.5774759,18.9133927 33.43,17.21 C33.4068146,16.8833999 33.3037995,16.5674868 33.13,16.29 C32.7666969,15.8922455 32.3237695,15.575382 31.83,15.36 C32.7443711,14.9602409 33.360898,14.0855434 33.43,13.09 C33.5897223,11.5061341 34.3967082,10.0586259 35.66,9.09 C36.9108254,8.15707149 38.4402469,7.67428174 40,7.72 C41.3834682,7.68005642 42.7306453,8.1660407 43.77,9.08 C44.6811245,9.81007665 45.2139486,10.9124713 45.22,12.08 C45.1474451,12.5903635 45.4203964,13.0873793 45.89,13.3 C45.6707679,13.701184 45.2471132,13.947674 44.79,13.94 C44.6352023,13.942136 44.4807237,13.9253449 44.33,13.89 C43.9130603,14.5048045 43.2227503,14.8779451 42.48,14.89 C42.2796589,14.8840738 42.0811048,14.8504206 41.89,14.79 C41.7090712,14.7510566 41.5447832,14.6566783 41.42,14.52 C41.6733333,14.4133333 41.8233333,14.15 41.87,13.73 L41.62,13.73 C41.0266667,13.73 40.66,13.3966667 40.52,12.73 C41.0940535,12.7669467 41.6397826,12.4766652 41.93,11.98 C42.0410942,11.7854078 42.0964515,11.5639786 42.09,11.34 C42.1225151,10.8345567 41.9238886,10.3416687 41.55,10 C41.1303532,9.66018906 40.5990887,9.48904346 40.06,9.52 C38.5866667,9.52 37.85,10.4733333 37.85,12.38 L37.85,18.75 C37.6853254,19.9723329 38.3921958,21.1449061 39.55,21.57 C39.913005,21.6965638 40.2956374,21.7575141 40.68,21.75 C41.0691409,21.7538991 41.4567028,21.6999774 41.83,21.59 C42.1439143,21.5012281 42.4388213,21.3554695 42.7,21.16 C43.1580689,20.8286142 43.4265746,20.2953321 43.42,19.73 C43.4219982,19.558128 43.4018321,19.3867155 43.36,19.22 L43.36,19.22 Z M35.66,19.7 C35.7698615,19.6256049 35.8369304,19.5026452 35.84,19.37 C35.830271,19.1226477 35.7899646,18.8774505 35.72,18.64 C35.437988,17.7087828 35.256947,16.7499357 35.18,15.78 C35.1738486,15.3594046 35.1905398,14.9387854 35.23,14.52 C35.2633333,14.22 35.31,13.9166667 35.37,13.61 C35.4766667,13.0166667 35.59,12.4933333 35.71,12.04 C35.7709023,11.8447545 35.8111231,11.6436506 35.83,11.44 C35.8461028,11.2668318 35.7793536,11.0962505 35.65,10.98 C35.2446319,11.4944115 34.9578086,12.0919599 34.81,12.73 C34.6166667,13.4633333 34.46,14.11 34.34,14.67 C34.2933333,14.8966667 34.0366667,15.12 33.57,15.34 C34.0433333,15.56 34.3,15.7833333 34.34,16.01 C34.5099136,16.9747962 34.7779726,17.9197042 35.14,18.83 C35.2947699,19.1306997 35.4684517,19.4212828 35.66,19.7 L35.66,19.7 Z" id="Shape"></path>
            <path d="M80.23,23.44 C79.6849302,23.4452538 79.1500195,23.2924222 78.69,23 C78.3243009,23.2536511 77.8945698,23.3992052 77.45,23.42 C77.1336845,23.4268848 76.8177875,23.3932788 76.51,23.32 C76.2847023,23.2615116 76.0691115,23.1705593 75.87,23.05 C75.542309,22.889972 75.3277143,22.564248 75.31,22.2 C75.3049182,22.0354574 75.3541142,21.8738134 75.45,21.74 C75.6615944,21.8934904 75.9188292,21.9710132 76.18,21.96 C76.8760087,22.0081239 77.5246521,21.6052399 77.79,20.96 L77.79,14.56 C77.8148777,14.2430704 77.7262678,13.927619 77.54,13.67 C77.1658645,13.2448579 76.7057166,12.9040076 76.19,12.67 C76.6198419,12.5248382 77.0172565,12.2972589 77.36,12 C77.6480113,11.6861028 77.8084846,11.2760043 77.81,10.85 L77.81,5.33 C77.5471678,4.6826349 76.8967987,4.27867895 76.2,4.33 C75.9388292,4.31898681 75.6815944,4.39650961 75.47,4.55 C75.3755397,4.41926543 75.3263789,4.26124879 75.33,4.1 C75.3298085,3.92843615 75.382155,3.76092743 75.48,3.62 C75.5872486,3.46488799 75.727201,3.33517608 75.89,3.24 C76.3066321,2.99071227 76.7845398,2.86257761 77.27,2.87 C77.7788952,2.86743016 78.2769196,3.01718575 78.7,3.3 C79.1315454,3.01938537 79.6352418,2.87001335 80.15,2.87 C80.6426677,2.86707538 81.1291104,2.98012194 81.57,3.2 C82.4995801,2.90950072 83.4661948,2.75457293 84.44,2.74 C85.2222922,2.73276867 86.0041505,2.77954652 86.78,2.88 C87.463971,2.96764112 88.1352533,3.1354617 88.78,3.38 C89.4054053,3.63362127 89.9939821,3.96995089 90.53,4.38 C91.0942655,4.80204091 91.5871917,5.31184819 91.99,5.89 C92.9781272,7.3853663 93.5762998,9.1042531 93.73,10.89 C93.7182583,11.2775778 93.8115516,11.6611171 94,12 C94.3007291,12.3557664 94.6959352,12.6192371 95.14,12.76 C94.7627348,12.8703215 94.418999,13.0731256 94.14,13.35 C93.8654644,13.7160848 93.7022825,14.153551 93.67,14.61 C93.5535758,17.1293293 92.5142081,19.5177391 90.75,21.32 C89.0607909,22.8743327 86.8235703,23.6944072 84.53,23.6 C83.5921492,23.6148286 82.6596918,23.4554632 81.78,23.13 C81.2988012,23.365535 80.7647739,23.4723405 80.23,23.44 L80.23,23.44 Z M79.06,19.7 C79.4933333,19.5333333 79.7333333,18.96 79.78,17.98 C79.8266667,17 79.8533333,15.6466667 79.86,13.92 C79.86,12.1933333 79.86,11.0433333 79.86,10.47 C79.86,9.89666667 79.86,9.43666667 79.86,9.09 C79.9142929,8.45244378 79.8148434,7.81116609 79.57,7.22 C79.4437744,7.04292785 79.2798354,6.89606585 79.09,6.79 C79.1350579,8.52892792 79.0716013,10.2689733 78.9,12 C78.7449151,12.3812883 78.4120577,12.6617861 78.01,12.75 C78.5366667,12.9366667 78.8333333,13.16 78.9,13.42 C79.0574556,14.9479398 79.110912,16.4848126 79.06,18.02 L79.06,19.7 Z M82.62,21.11 C83.0421243,21.5849923 83.6550574,21.8455806 84.29,21.82 C84.9181136,21.8367153 85.5404017,21.695755 86.1,21.41 C86.6378676,21.1078769 87.0837004,20.6655002 87.39,20.13 C88.2135656,18.4015563 88.5785986,16.4902985 88.45,14.58 C88.4926683,14.1848248 88.401085,13.7867895 88.19,13.45 C87.8613012,13.1123491 87.4516265,12.8644787 87,12.73 C87.371144,12.6258858 87.7133217,12.4376881 88,12.18 C88.2697288,11.8397282 88.4081454,11.4138309 88.39,10.98 C88.3918822,10.4948809 88.3584606,10.0102679 88.29,9.53 C88.2329042,9.04943954 88.1359026,8.57446611 88,8.11 C87.8475091,7.6403154 87.6534058,7.18517677 87.42,6.75 C87.1993807,6.32917665 86.9199032,5.94194886 86.59,5.6 C85.9467447,4.90166663 85.0394375,4.50608071 84.09,4.51 L83.23,4.51 C82.9954266,4.50275647 82.7692424,4.5976079 82.61,4.77 L82.62,21.11 Z M89.13,6.8 C89.7249532,8.29589905 90.0630393,9.88152259 90.13,11.49 C90.1643112,11.7584302 90.126337,12.0311537 90.02,12.28 C89.9471931,12.3578178 89.8667938,12.4281672 89.78,12.49 C89.6219832,12.5958319 89.4504441,12.6799197 89.27,12.74 C89.7966667,12.9733333 90.0733333,13.2 90.1,13.42 C90.1088339,13.5164648 90.1088339,13.6135352 90.1,13.71 L90.1,14 C90.1021527,15.153407 89.9780809,16.3035862 89.73,17.43 C89.4833333,18.5366667 89.3,19.2866667 89.18,19.68 C89.5725224,19.5681669 89.8904939,19.2797741 90.04,18.9 C90.2261467,18.4755573 90.3799188,18.0376413 90.5,17.59 C90.6319246,17.0997137 90.7354302,16.6022192 90.81,16.1 C90.9870747,14.9854774 91.0740229,13.8584946 91.07,12.73 C91.1397514,10.9919492 90.8220824,9.26014046 90.14,7.66 C89.9469204,7.23819695 89.5771871,6.9233745 89.13,6.8 Z" id="Shape"></path>
            <path d="M98.76,23 C98.3584896,23.279819 97.8793509,23.4267082 97.39,23.42 C96.9809425,23.4523616 96.5745035,23.3311429 96.25,23.08 C96.0420676,22.923839 95.9081157,22.6885181 95.88,22.43 C95.8654166,22.1898846 95.9285305,21.9514543 96.06,21.75 C96.3118267,21.9139151 96.6102715,21.9911597 96.91,21.97 C97.2833333,21.97 97.6166667,21.7266667 97.91,21.24 L97.91,17.07 C97.9354807,16.7700656 97.8500904,16.4711998 97.67,16.23 C97.2658241,15.8668949 96.8068362,15.5699028 96.31,15.35 C96.7306648,15.1850814 97.1248614,14.9593449 97.48,14.68 C97.7635441,14.4011951 97.9191741,14.0175491 97.91,13.62 L97.91,11.71 C97.91,10.97 97.6566667,10.5666667 97.15,10.5 C96.9634764,10.4896627 96.7765236,10.4896627 96.59,10.5 C96.3610047,10.499036 96.1386159,10.5766957 95.96,10.72 C95.8446689,10.5710582 95.7814303,10.388369 95.78,10.2 C95.787355,9.9928188 95.8349031,9.78904142 95.92,9.6 C96.014,9.37877874 96.1459911,9.17571546 96.31,9 C96.7092182,8.55173963 97.2797512,8.29372791 97.88,8.29 C98.4323147,8.28105695 98.9804953,8.38660725 99.49,8.6 C99.8130132,8.07108703 100.380586,7.74031616 101,7.72 C101.9,7.72 102.35,8.19 102.35,9.13 L102.35,13.62 C102.321232,13.9451606 102.421842,14.2685496 102.63,14.52 C103.019797,14.8694553 103.466153,15.1501184 103.95,15.35 C103.51023,15.5392622 103.096797,15.7846326 102.72,16.08 C102.470528,16.3520529 102.337685,16.7110859 102.35,17.08 L102.35,21.3 C102.53367,21.694217 102.916259,21.9582034 103.35,21.99 C103.646587,22.0111742 103.941868,21.9338387 104.19,21.77 C104.316897,21.9510821 104.380197,22.1691165 104.37,22.39 C104.350923,22.6678659 104.216826,22.9251865 104,23.1 C103.682544,23.3498323 103.282768,23.4711929 102.88,23.44 C102.385229,23.4412084 101.901315,23.2949898 101.49,23.02 C101.119397,23.308249 100.659199,23.4569285 100.19,23.44 C99.6785274,23.4501571 99.1772917,23.2959308 98.76,23 Z M100.07,5.85 C99.6166565,5.84915241 99.171604,5.72840171 98.78,5.5 C98.3817005,5.28161703 98.0525854,4.95596636 97.83,4.56 C97.6093089,4.1711219 97.2835337,3.8522781 96.89,3.64 L96.47,3.44 L96.92,3.16 C97.3148286,2.91702468 97.6362659,2.57139315 97.85,2.16 C98.0566328,1.78083517 98.3741238,1.47381084 98.76,1.28 C99.1673155,1.08128159 99.6170379,0.985157706 100.07,1 C100.958831,0.950086978 101.792194,1.43359458 102.19,2.23 C102.495262,2.78156531 102.983266,3.2094523 103.57,3.44 L103.18,3.65 C103.05475,3.71058462 102.934389,3.78079529 102.82,3.86 C102.542275,4.06374723 102.313404,4.32677879 102.15,4.63 C101.940982,4.98165 101.649181,5.27688307 101.3,5.49 C100.933811,5.72723149 100.506311,5.85235353 100.07,5.85 Z M99.38,4.25 C99.3244236,4.14630508 99.2840119,4.0351729 99.26,3.92 C99.2371302,3.69725214 99.2371302,3.47274786 99.26,3.25 C99.2875054,2.80051022 99.4398858,2.3676115 99.7,2 C99.4590143,1.97566829 99.2173877,2.03962826 99.02,2.18 C98.9154524,2.27206936 98.8184735,2.37239233 98.73,2.48 C98.6674561,2.5591815 98.610645,2.64272721 98.56,2.73 C98.5047394,2.82307103 98.4446576,2.91319368 98.38,3 C98.2756718,3.17101613 98.1358571,3.31765105 97.97,3.43 C98.126521,3.52197033 98.2599247,3.64853284 98.36,3.8 C98.4874492,3.98360874 98.6242983,4.16051113 98.77,4.33 C98.9944956,4.61241595 99.3394234,4.77189873 99.7,4.76 L99.54,4.49 L99.38,4.25 Z M99.9,16.82 C99.9,16.52 99.9,16.27 99.9,16.07 C99.9,15.87 99.9,15.71 99.9,15.59 L99.9,15.24 C99.9,15.1066667 99.9,14.9366667 99.9,14.73 C99.9,14.5233333 99.9,14.2933333 99.9,14.04 C99.9,13.7866667 99.9,13.5366667 99.9,13.29 C99.8785052,12.8566467 99.8250263,12.4254734 99.74,12 C99.677804,11.6012696 99.4625523,11.2425167 99.14,11 L99.14,11.85 C99.170103,12.7179456 99.1366805,13.5869307 99.04,14.45 C98.9982299,14.670422 98.8900611,14.8728024 98.73,15.03 C98.5396516,15.1797889 98.3224178,15.2918001 98.09,15.36 C98.6166667,15.5466667 98.9133333,15.77 98.98,16.03 C99.1211781,16.969668 99.1747416,17.9204211 99.14,18.87 L99.14,19.72 C99.6015651,19.3160059 99.852218,18.7225485 99.82,18.11 C99.8666667,17.5366667 99.89,17.1033333 99.89,16.81 L99.9,16.82 Z" id="Shape"></path>
            <path d="M117.17,19.22 C117.382537,18.842203 117.798736,18.6262504 118.23,18.67 C118.557286,18.658959 118.865771,18.8227226 119.04,19.1 C119.203666,19.3453027 119.287494,19.6352053 119.28,19.93 C119.277033,20.2784277 119.191348,20.6211678 119.03,20.93 C118.858414,21.2678987 118.628171,21.5726322 118.35,21.83 C118.047117,22.1096883 117.711314,22.3514665 117.35,22.55 C116.971024,22.7612889 116.572502,22.9354328 116.16,23.07 C115.289182,23.3584288 114.377334,23.5036491 113.46,23.5 C112.562583,23.5087407 111.671173,23.3528285 110.83,23.04 C110.049537,22.7526306 109.335229,22.3104395 108.73,21.74 C107.527017,20.5184129 106.784859,18.9174722 106.63,17.21 C106.606815,16.8833999 106.503799,16.5674868 106.33,16.29 C105.966697,15.8922455 105.523769,15.575382 105.03,15.36 C105.743337,15.0703535 106.279929,14.4634486 106.48,13.72 C106.539302,13.5130086 106.586053,13.3026259 106.62,13.09 C106.860479,11.5161099 107.716659,10.1023349 109,9.16 C110.212888,8.14217998 111.746636,7.58606355 113.33,7.59 C114.94354,7.57002548 116.497112,8.20082595 117.64,9.34 C118.873037,10.4836734 119.560429,12.0984999 119.53,13.78 C119.53,13.84 119.53,13.9 119.53,13.96 C119.523379,14.0164733 119.523379,14.0735267 119.53,14.13 C119.539937,14.2398978 119.629748,14.3254326 119.74,14.33 C119.906698,14.5133983 119.999353,14.7521642 120,15 C120.013608,15.2351341 119.932391,15.4659102 119.77452,15.6406958 C119.616649,15.8154814 119.395302,15.9196876 119.16,15.93 L118.51,16.03 L111.12,17.21 L111.12,18.47 C111.074944,19.3668332 111.408777,20.2413315 112.04,20.88 C112.624104,21.4492522 113.414806,21.7561456 114.23,21.73 C115.020868,21.7635573 115.803911,21.5617062 116.48,21.15 C116.979845,20.8426474 117.283109,20.2967716 117.28,19.71 C117.264067,19.5426937 117.227109,19.3780628 117.17,19.22 Z M108.94,19.7 C109.049861,19.6256049 109.11693,19.5026452 109.12,19.37 C109.110271,19.1226477 109.069965,18.8774505 109,18.64 C108.717988,17.7087828 108.536947,16.7499357 108.46,15.78 C108.453849,15.3594046 108.47054,14.9387854 108.51,14.52 C108.543333,14.22 108.59,13.9166667 108.65,13.61 C108.756667,13.0166667 108.87,12.4933333 108.99,12.04 C109.050902,11.8447545 109.091123,11.6436506 109.11,11.44 C109.126103,11.2668318 109.059354,11.0962505 108.93,10.98 C108.524632,11.4944115 108.237809,12.0919599 108.09,12.73 C107.896667,13.4633333 107.74,14.11 107.62,14.67 C107.573333,14.9033333 107.316667,15.13 106.85,15.35 C107.323333,15.57 107.58,15.7866667 107.62,16 C107.789914,16.9647962 108.057973,17.9097042 108.42,18.82 C108.577631,19.124385 108.754663,19.4183242 108.95,19.7 L108.94,19.7 Z M114.88,15 L114.88,11.32 C114.913022,10.8704478 114.793212,10.4229224 114.54,10.05 C114.262691,9.65773607 113.828198,9.40580326 113.35,9.36 C113.00764,9.34794324 112.666667,9.4093185 112.35,9.54 C112.079528,9.66600641 111.845532,9.85870901 111.67,10.1 C111.211828,10.8457126 111.001772,11.717444 111.07,12.59 L111.07,15.59 L114.88,15 Z M116.82,14.67 L116.82,14.26 C116.92876,13.2579011 116.787909,12.2444601 116.41,11.31 C116.297548,11.1780325 116.157618,11.0722314 116,11 L116,14.81 L116.82,14.67 Z" id="Shape"></path>
            <path d="M123.34,23.68 C122.725875,23.1363407 122.382078,22.3499965 122.4,21.53 C122.4,20.2566667 123.156667,19.21 124.67,18.39 C123.599632,17.57684 122.83787,16.4236172 122.51,15.12 C122.420371,14.7811841 122.267708,14.4622884 122.06,14.18 C121.740147,13.8435248 121.355851,13.5748582 120.93,13.39 C121.323476,13.2226955 121.667691,12.95765 121.93,12.62 C122.19154,12.2429877 122.393879,11.828192 122.53,11.39 C122.704291,10.8767324 122.946437,10.3890772 123.25,9.94 C123.572498,9.4637563 123.979152,9.05032489 124.45,8.72 C125.682955,7.92270359 127.133031,7.52786347 128.6,7.59 C129.167478,7.59241367 129.733411,7.64934187 130.29,7.76 C130.404038,6.8254457 130.855704,5.96479069 131.56,5.34 C132.232754,4.68978703 133.134433,4.33055218 134.07,4.34 C135.088396,4.30780489 136.088235,4.6176142 136.91,5.22 C137.259114,5.5143549 137.719086,5.64212503 138.17,5.57 C138.274175,6.15898051 137.928712,6.7347522 137.36,6.92 C137.266667,8.1 136.756667,8.69 135.83,8.69 C135.603523,8.71095814 135.375175,8.68369275 135.16,8.61 C135.29099,8.50205247 135.3648,8.33967063 135.36,8.17 C135.358709,7.99158299 135.278081,7.82299573 135.14,7.71 C134.953333,8.05 134.543333,8.22 133.91,8.22 C133.560869,8.22433727 133.239371,8.03066401 133.08,7.72 C133.381996,7.6346176 133.655079,7.46869406 133.87,7.24 C134.037465,7.08268989 134.140769,6.86895656 134.16,6.64 C134.16,6.16 133.906667,5.92 133.4,5.92 C132.42,5.92 131.846667,6.68 131.68,8.2 C133.121735,8.74978014 134.228873,9.93441838 134.68,11.41 C134.874093,12.2888255 135.465215,13.0277282 136.28,13.41 C135.751978,13.6485601 135.30654,14.0383179 135,14.53 C134.902183,14.71894 134.821849,14.916429 134.76,15.12 C134.409467,16.429077 133.631626,17.5835189 132.55,18.4 C131.397023,19.1442887 130.040973,19.5112611 128.67,19.45 C127.782604,19.4658548 126.898302,19.3409725 126.05,19.08 C125.809824,19.1941094 125.646752,19.4254445 125.62,19.69 C125.613403,19.884844 125.658241,20.0779887 125.75,20.25 C125.865508,20.4276993 126.028267,20.5696801 126.22,20.66 C127.03145,20.9926301 127.887161,21.2048733 128.76,21.29 C129.326667,21.4033333 129.91,21.0366667 130.51,20.19 C130.516231,20.5445643 130.620029,20.8905578 130.81,21.19 C130.934861,21.3835144 131.133697,21.5172772 131.36,21.56 C133.766667,21.92 135.326667,22.7066667 136.04,23.92 C136.306137,24.4026766 136.434154,24.9493438 136.41,25.5 C136.39856,26.1719219 136.182251,26.8243362 135.79,27.37 C135.354448,27.999925 134.788263,28.5285918 134.13,28.92 C132.50366,29.8377172 130.656409,30.2908818 128.79,30.23 C126.810094,30.3486327 124.835467,29.9232751 123.08,29 C122.063506,28.4736545 121.415411,27.4344014 121.39,26.29 C121.435842,25.4670924 121.841907,24.7061777 122.5,24.21 C122.75743,23.9998651 123.039509,23.8218864 123.34,23.68 L123.34,23.68 Z M124.61,17 C124.768106,16.8997629 124.865668,16.7271527 124.87,16.54 C124.870948,16.3201635 124.840645,16.1013082 124.78,15.89 C124.30833,14.2771095 124.30833,12.5628905 124.78,10.95 C124.832366,10.7881433 124.862639,10.6199575 124.87,10.45 L124.87,10.12 C124.871656,10.0409288 124.834251,9.96611763 124.77,9.92 C124.410794,10.3580686 124.145317,10.8651977 123.99,11.41 C123.83,11.97 123.7,12.4633333 123.6,12.89 C123.566667,13.0233333 123.323333,13.19 122.87,13.39 C123.33,13.6166667 123.573333,13.7866667 123.6,13.9 L123.86,15 C123.995276,15.7042331 124.248863,16.3804647 124.61,17 L124.61,17 Z M124.61,24.54 C124.002221,24.7902569 123.626141,25.4049249 123.68,26.06 C123.68,26.6533333 124.13,27.19 125.03,27.67 C126.240252,28.256004 127.576434,28.534232 128.92,28.48 C130.873333,28.48 132.143333,28.1466667 132.73,27.48 C132.883879,27.3253716 132.973244,27.1180435 132.98,26.9 C132.972976,26.6845867 132.865698,26.4848291 132.69,26.36 C132.482225,26.2015094 132.248856,26.0797514 132,26 C131.285124,25.7922158 130.551627,25.6548946 129.81,25.59 C129.33,25.5366667 128.736667,25.89 128.03,26.65 C128.060475,26.2804238 127.976697,25.9104053 127.79,25.59 C127.684111,25.4130433 127.510858,25.2867133 127.31,25.24 C126.394027,25.1255693 125.498635,24.8832076 124.65,24.52 L124.61,24.54 Z M123.9,21.66 C123.8154,21.7522819 123.772067,21.8750592 123.78,22 C123.813333,22.94 125.146667,23.65 127.78,24.13 C128.086667,24.2033333 128.303333,24.5366667 128.43,25.13 C128.476667,24.9366667 128.65,24.7766667 128.95,24.65 C129.139831,24.5512447 129.346966,24.4901231 129.56,24.47 C130.459732,24.5550753 131.352086,24.7054719 132.23,24.92 C132.956955,25.0672603 133.616589,25.4461989 134.11,26 C134.218967,25.8681447 134.275884,25.7009535 134.27,25.53 C134.246768,25.3265813 134.150894,25.1383833 134,25 C133.730185,24.7575824 133.408733,24.5797576 133.06,24.48 C132.069779,24.1577811 131.046847,23.946487 130.01,23.85 C128.723333,23.7033333 127.823333,23.5733333 127.31,23.46 C126.82364,23.3554086 126.345673,23.2150265 125.88,23.04 C125.097737,22.8032435 124.417915,22.3101085 123.95,21.64 L123.9,21.66 Z M127.33,17.09 C127.468944,17.3158038 127.670423,17.4964402 127.91,17.61 C128.347735,17.7585853 128.822265,17.7585853 129.26,17.61 C129.455211,17.5306047 129.622325,17.3948241 129.74,17.22 C130.040382,16.6666029 130.172464,16.0374753 130.12,15.41 L130.12,11.77 C130.175041,11.1941528 130.074908,10.6140704 129.83,10.09 C129.691056,9.86419621 129.489577,9.68355982 129.25,9.57 C128.81239,9.42066363 128.33761,9.42066363 127.9,9.57 C127.709252,9.64249093 127.545246,9.77160177 127.43,9.94 C127.12367,10.4950462 126.988001,11.1281689 127.04,11.76 L127.04,15.39 C126.999966,15.9704006 127.117436,16.5508393 127.38,17.07 L127.33,17.09 Z M131.39,17 C131.79,16.86 132.02,16.4266667 132.08,15.7 C132.14,14.9733333 132.17,14.21 132.17,13.41 C132.195685,12.572023 132.162269,11.7332776 132.07,10.9 C132.034158,10.4705623 131.776192,10.0911995 131.39,9.9 L131.39,17 Z" id="Shape"></path>
            <path d="M139.43,19.72 C139.150355,19.0814505 138.95537,18.4090892 138.85,17.72 C138.812752,17.3631779 138.752628,17.009116 138.67,16.66 C138.620253,16.4957256 138.538708,16.3428286 138.43,16.21 C138.083026,15.8328709 137.660526,15.5330325 137.19,15.33 C137.903337,15.0403535 138.439929,14.4334486 138.64,13.69 C138.699048,13.4829441 138.745796,13.2725767 138.78,13.06 C139.001493,11.5090252 139.815057,10.1041047 141.05,9.14 C142.311007,8.09588831 143.903016,7.53567136 145.54,7.56 C147.21542,7.52552849 148.847614,8.0932482 150.14,9.16 C151.347286,10.1304087 152.137918,11.5256424 152.35,13.06 C152.38792,13.478879 152.506785,13.8864155 152.7,14.26 C153.01264,14.7468731 153.466067,15.1270541 154,15.35 C153.570934,15.5262191 153.180321,15.7843636 152.85,16.11 C152.607419,16.4278199 152.452275,16.8036131 152.4,17.2 C152.258588,18.9708175 151.497285,20.6350604 150.25,21.9 C147.454179,24.1097827 143.484936,24.0301464 140.78,21.71 C140.204041,21.1414599 139.745359,20.465329 139.43,19.72 L139.43,19.72 Z M141.2,19.72 C141.309861,19.6456049 141.37693,19.5226452 141.38,19.39 C141.370271,19.1426477 141.329965,18.8974505 141.26,18.66 C140.977988,17.7287828 140.796947,16.7699357 140.72,15.8 C140.713849,15.3794046 140.73054,14.9587854 140.77,14.54 C140.803333,14.24 140.846667,13.9366667 140.9,13.63 C141.013333,13.0366667 141.13,12.5133333 141.25,12.06 C141.310902,11.8647545 141.351123,11.6636506 141.37,11.46 C141.386103,11.2868318 141.319354,11.1162505 141.19,11 C140.784632,11.5144115 140.497809,12.1119599 140.35,12.75 C140.156667,13.4833333 140,14.13 139.88,14.69 C139.833333,14.9233333 139.576667,15.15 139.11,15.37 C139.583333,15.59 139.84,15.8066667 139.88,16.02 C140.049914,16.9847962 140.317973,17.9297042 140.68,18.84 C140.838373,19.1375458 141.015392,19.424785 141.21,19.7 L141.2,19.72 Z M145.56,9.45 C144.073333,9.45 143.33,10.54 143.33,12.72 L143.33,18.52 C143.33,20.6133333 144.066667,21.66 145.54,21.66 C147.013333,21.66 147.76,20.6133333 147.78,18.52 L147.78,12.72 C147.793333,10.5266667 147.056667,9.43 145.57,9.43 L145.56,9.45 Z M149.04,19.72 C149.473333,19.5533333 149.713333,18.98 149.76,18 C149.806667,17.02 149.833333,16.2933333 149.84,15.82 C149.84,15.3466667 149.84,14.95 149.84,14.63 C149.84,14.31 149.84,13.9766667 149.84,13.63 C149.894745,12.8739355 149.792608,12.1147167 149.54,11.4 C149.416522,11.226785 149.255955,11.0832997 149.07,10.98 L149.04,19.72 Z" id="Shape"></path>
            <path d="M70,14.21 C69.8496414,14.1342698 69.7773445,13.9599068 69.83,13.8 C70.5677682,11.7115203 69.7334989,9.39230551 67.8344001,8.25236115 C65.9353013,7.11241678 63.4962047,7.46677592 62,9.1 L60.9,10.24 L60.9,10.24 L59.76,9.1 C58.2522971,7.53355667 55.8604177,7.22093946 54.0007705,8.34727214 C52.1411233,9.47360483 51.3101786,11.7381903 52,13.8 C52.0526555,13.9599068 51.9803586,14.1342698 51.83,14.21 L51.52,14.36 C51.9936121,14.5735253 52.434646,14.852959 52.83,15.19 C53.41,15.91 54.14,16.67 54.31,16.84 C56.39,18.96 60.9,23.43 60.91,23.44 L60.91,23.44 C60.91,23.44 65.43,18.96 67.51,16.84 C67.67,16.67 68.41,15.91 68.99,15.19 C69.3829043,14.8496503 69.8244425,14.5698971 70.3,14.36 L70,14.21 Z M59,19.68 C57.69,18.38 56.23,16.91 55.28,15.94 C54.92,15.57 54.51,15.12 54.16,14.72 L54.16,14.72 C53.8816032,14.5449413 53.5781046,14.4134253 53.26,14.33 L53.49,14.33 C53.5472442,14.3180328 53.5943185,14.277482 53.6146301,14.2226408 C53.6349416,14.1677996 53.6256386,14.1063682 53.59,14.06 C53.5021871,13.9474969 53.4251795,13.8269633 53.36,13.7 C53.026934,12.8757068 53.026934,11.9542932 53.36,11.13 L54.17,13.18 C54.2965122,13.5022498 54.4831622,13.7974962 54.72,14.05 L56.84,16.3 C57.5740711,17.0785622 58.1784237,17.9698979 58.63,18.94 L58.98,19.69 L59,19.68 Z" id="Shape"></path>
        </g>
    </g>
</svg>