<?xml version="1.0" encoding="UTF-8"?>
<svg width="126px" height="84px" viewBox="0 0 126 84" version="1.1" xmlns="http://www.w3.org/2000/svg" xmlns:xlink="http://www.w3.org/1999/xlink">
    <!-- Generator: Sketch 46 (44423) - http://www.bohemiancoding.com/sketch -->
    <title>us_flag</title>
    <desc>Created with Sketch.</desc>
    <defs></defs>
    <g id="Page-1" stroke="none" stroke-width="1" fill="none" fill-rule="evenodd">
        <g id="us_flag" fill-rule="nonzero">
            <rect id="Rectangle-path" fill="#B22234" x="0" y="0" width="126" height="84"></rect>
            <polygon id="Path" fill="#FFFFFF" points="0 12 126 12 126 6 0 6"></polygon>
            <polygon id="Path" fill="#FFFFFF" points="126 19 0 19 0 25 126 25"></polygon>
            <polygon id="Path" fill="#FFFFFF" points="0 38 126 38 126 32 0 32"></polygon>
            <polygon id="Path" fill="#FFFFFF" points="126 45 0 45 0 51 126 51"></polygon>
            <polygon id="Path" fill="#FFFFFF" points="0 64 126 64 126 58 0 58"></polygon>
            <polygon id="Path" fill="#FFFFFF" points="126 71 0 71 0 77 126 77"></polygon>
            <rect id="Rectangle-path" fill="#3C3B6E" x="0" y="0" width="64" height="45"></rect>
            <g id="Group" transform="translate(3.000000, 2.000000)" fill="#FFFFFF">
                <g id="s18">
                    <g id="s9">
                        <g id="s5">
                            <g id="s4">
                                <polygon id="s" points="2.49764002 0 4.02954537 4.64856119 0.0189650802 1.77559238 4.97631496 1.77559238 0.965734666 4.64856119"></polygon>
                                <g id="s-link" transform="translate(0.000000, 8.993815)">
                                    <polygon id="s" points="2.49764002 0 4.02954537 4.64856119 0.0189650802 1.77559238 4.97631496 1.77559238 0.965734666 4.64856119"></polygon>
                                </g>
                                <g id="s-link" transform="translate(0.000000, 17.987630)">
                                    <polygon id="s" points="2.49764002 0 4.02954537 4.64856119 0.0189650802 1.77559238 4.97631496 1.77559238 0.965734666 4.64856119"></polygon>
                                </g>
                                <g id="s-link" transform="translate(0.000000, 26.981445)">
                                    <polygon id="s" points="2.49764002 0 4.02954537 4.64856119 0.0189650802 1.77559238 4.97631496 1.77559238 0.965734666 4.64856119"></polygon>
                                </g>
                            </g>
                            <g id="s-link" transform="translate(0.000000, 35.975260)">
                                <polygon id="s" points="2.49764002 0 4.02954537 4.64856119 0.0189650802 1.77559238 4.97631496 1.77559238 0.965734666 4.64856119"></polygon>
                            </g>
                        </g>
                        <g id="s4-link" transform="translate(5.364496, 4.496907)">
                            <g id="s4">
                                <polygon id="s" points="2.49764002 0 4.02954537 4.64856119 0.0189650802 1.77559238 4.97631496 1.77559238 0.965734666 4.64856119"></polygon>
                                <g id="s-link" transform="translate(0.000000, 8.993815)">
                                    <polygon id="s" points="2.49764002 0 4.02954537 4.64856119 0.0189650802 1.77559238 4.97631496 1.77559238 0.965734666 4.64856119"></polygon>
                                </g>
                                <g id="s-link" transform="translate(0.000000, 17.987630)">
                                    <polygon id="s" points="2.49764002 0 4.02954537 4.64856119 0.0189650802 1.77559238 4.97631496 1.77559238 0.965734666 4.64856119"></polygon>
                                </g>
                                <g id="s-link" transform="translate(0.000000, 26.981445)">
                                    <polygon id="s" points="2.49764002 0 4.02954537 4.64856119 0.0189650802 1.77559238 4.97631496 1.77559238 0.965734666 4.64856119"></polygon>
                                </g>
                            </g>
                        </g>
                    </g>
                    <g id="s9-link" transform="translate(10.728993, 0.000000)">
                        <g id="s9">
                            <g id="s5">
                                <g id="s4">
                                    <polygon id="s" points="2.49764002 0 4.02954537 4.64856119 0.0189650802 1.77559238 4.97631496 1.77559238 0.965734666 4.64856119"></polygon>
                                    <g id="s-link" transform="translate(0.000000, 8.993815)">
                                        <polygon id="s" points="2.49764002 0 4.02954537 4.64856119 0.0189650802 1.77559238 4.97631496 1.77559238 0.965734666 4.64856119"></polygon>
                                    </g>
                                    <g id="s-link" transform="translate(0.000000, 17.987630)">
                                        <polygon id="s" points="2.49764002 0 4.02954537 4.64856119 0.0189650802 1.77559238 4.97631496 1.77559238 0.965734666 4.64856119"></polygon>
                                    </g>
                                    <g id="s-link" transform="translate(0.000000, 26.981445)">
                                        <polygon id="s" points="2.49764002 0 4.02954537 4.64856119 0.0189650802 1.77559238 4.97631496 1.77559238 0.965734666 4.64856119"></polygon>
                                    </g>
                                </g>
                                <g id="s-link" transform="translate(0.000000, 35.975260)">
                                    <polygon id="s" points="2.49764002 0 4.02954537 4.64856119 0.0189650802 1.77559238 4.97631496 1.77559238 0.965734666 4.64856119"></polygon>
                                </g>
                            </g>
                            <g id="s4-link" transform="translate(5.364496, 4.496907)">
                                <g id="s4">
                                    <polygon id="s" points="2.49764002 0 4.02954537 4.64856119 0.0189650802 1.77559238 4.97631496 1.77559238 0.965734666 4.64856119"></polygon>
                                    <g id="s-link" transform="translate(0.000000, 8.993815)">
                                        <polygon id="s" points="2.49764002 0 4.02954537 4.64856119 0.0189650802 1.77559238 4.97631496 1.77559238 0.965734666 4.64856119"></polygon>
                                    </g>
                                    <g id="s-link" transform="translate(0.000000, 17.987630)">
                                        <polygon id="s" points="2.49764002 0 4.02954537 4.64856119 0.0189650802 1.77559238 4.97631496 1.77559238 0.965734666 4.64856119"></polygon>
                                    </g>
                                    <g id="s-link" transform="translate(0.000000, 26.981445)">
                                        <polygon id="s" points="2.49764002 0 4.02954537 4.64856119 0.0189650802 1.77559238 4.97631496 1.77559238 0.965734666 4.64856119"></polygon>
                                    </g>
                                </g>
                            </g>
                        </g>
                    </g>
                </g>
                <g id="s18-link" transform="translate(21.457986, 0.000000)">
                    <g id="s18">
                        <g id="s9">
                            <g id="s5">
                                <g id="s4">
                                    <polygon id="s" points="2.49764002 0 4.02954537 4.64856119 0.0189650802 1.77559238 4.97631496 1.77559238 0.965734666 4.64856119"></polygon>
                                    <g id="s-link" transform="translate(0.000000, 8.993815)">
                                        <polygon id="s" points="2.49764002 0 4.02954537 4.64856119 0.0189650802 1.77559238 4.97631496 1.77559238 0.965734666 4.64856119"></polygon>
                                    </g>
                                    <g id="s-link" transform="translate(0.000000, 17.987630)">
                                        <polygon id="s" points="2.49764002 0 4.02954537 4.64856119 0.0189650802 1.77559238 4.97631496 1.77559238 0.965734666 4.64856119"></polygon>
                                    </g>
                                    <g id="s-link" transform="translate(0.000000, 26.981445)">
                                        <polygon id="s" points="2.49764002 0 4.02954537 4.64856119 0.0189650802 1.77559238 4.97631496 1.77559238 0.965734666 4.64856119"></polygon>
                                    </g>
                                </g>
                                <g id="s-link" transform="translate(0.000000, 35.975260)">
                                    <polygon id="s" points="2.49764002 0 4.02954537 4.64856119 0.0189650802 1.77559238 4.97631496 1.77559238 0.965734666 4.64856119"></polygon>
                                </g>
                            </g>
                            <g id="s4-link" transform="translate(5.364496, 4.496907)">
                                <g id="s4">
                                    <polygon id="s" points="2.49764002 0 4.02954537 4.64856119 0.0189650802 1.77559238 4.97631496 1.77559238 0.965734666 4.64856119"></polygon>
                                    <g id="s-link" transform="translate(0.000000, 8.993815)">
                                        <polygon id="s" points="2.49764002 0 4.02954537 4.64856119 0.0189650802 1.77559238 4.97631496 1.77559238 0.965734666 4.64856119"></polygon>
                                    </g>
                                    <g id="s-link" transform="translate(0.000000, 17.987630)">
                                        <polygon id="s" points="2.49764002 0 4.02954537 4.64856119 0.0189650802 1.77559238 4.97631496 1.77559238 0.965734666 4.64856119"></polygon>
                                    </g>
                                    <g id="s-link" transform="translate(0.000000, 26.981445)">
                                        <polygon id="s" points="2.49764002 0 4.02954537 4.64856119 0.0189650802 1.77559238 4.97631496 1.77559238 0.965734666 4.64856119"></polygon>
                                    </g>
                                </g>
                            </g>
                        </g>
                        <g id="s9-link" transform="translate(10.728993, 0.000000)">
                            <g id="s9">
                                <g id="s5">
                                    <g id="s4">
                                        <polygon id="s" points="2.49764002 0 4.02954537 4.64856119 0.0189650802 1.77559238 4.97631496 1.77559238 0.965734666 4.64856119"></polygon>
                                        <g id="s-link" transform="translate(0.000000, 8.993815)">
                                            <polygon id="s" points="2.49764002 0 4.02954537 4.64856119 0.0189650802 1.77559238 4.97631496 1.77559238 0.965734666 4.64856119"></polygon>
                                        </g>
                                        <g id="s-link" transform="translate(0.000000, 17.987630)">
                                            <polygon id="s" points="2.49764002 0 4.02954537 4.64856119 0.0189650802 1.77559238 4.97631496 1.77559238 0.965734666 4.64856119"></polygon>
                                        </g>
                                        <g id="s-link" transform="translate(0.000000, 26.981445)">
                                            <polygon id="s" points="2.49764002 0 4.02954537 4.64856119 0.0189650802 1.77559238 4.97631496 1.77559238 0.965734666 4.64856119"></polygon>
                                        </g>
                                    </g>
                                    <g id="s-link" transform="translate(0.000000, 35.975260)">
                                        <polygon id="s" points="2.49764002 0 4.02954537 4.64856119 0.0189650802 1.77559238 4.97631496 1.77559238 0.965734666 4.64856119"></polygon>
                                    </g>
                                </g>
                                <g id="s4-link" transform="translate(5.364496, 4.496907)">
                                    <g id="s4">
                                        <polygon id="s" points="2.49764002 0 4.02954537 4.64856119 0.0189650802 1.77559238 4.97631496 1.77559238 0.965734666 4.64856119"></polygon>
                                        <g id="s-link" transform="translate(0.000000, 8.993815)">
                                            <polygon id="s" points="2.49764002 0 4.02954537 4.64856119 0.0189650802 1.77559238 4.97631496 1.77559238 0.965734666 4.64856119"></polygon>
                                        </g>
                                        <g id="s-link" transform="translate(0.000000, 17.987630)">
                                            <polygon id="s" points="2.49764002 0 4.02954537 4.64856119 0.0189650802 1.77559238 4.97631496 1.77559238 0.965734666 4.64856119"></polygon>
                                        </g>
                                        <g id="s-link" transform="translate(0.000000, 26.981445)">
                                            <polygon id="s" points="2.49764002 0 4.02954537 4.64856119 0.0189650802 1.77559238 4.97631496 1.77559238 0.965734666 4.64856119"></polygon>
                                        </g>
                                    </g>
                                </g>
                            </g>
                        </g>
                    </g>
                </g>
                <g id="s9-link" transform="translate(42.915971, 0.000000)">
                    <g id="s9">
                        <g id="s5">
                            <g id="s4">
                                <polygon id="s" points="2.49764002 0 4.02954537 4.64856119 0.0189650802 1.77559238 4.97631496 1.77559238 0.965734666 4.64856119"></polygon>
                                <g id="s-link" transform="translate(0.000000, 8.993815)">
                                    <polygon id="s" points="2.49764002 0 4.02954537 4.64856119 0.0189650802 1.77559238 4.97631496 1.77559238 0.965734666 4.64856119"></polygon>
                                </g>
                                <g id="s-link" transform="translate(0.000000, 17.987630)">
                                    <polygon id="s" points="2.49764002 0 4.02954537 4.64856119 0.0189650802 1.77559238 4.97631496 1.77559238 0.965734666 4.64856119"></polygon>
                                </g>
                                <g id="s-link" transform="translate(0.000000, 26.981445)">
                                    <polygon id="s" points="2.49764002 0 4.02954537 4.64856119 0.0189650802 1.77559238 4.97631496 1.77559238 0.965734666 4.64856119"></polygon>
                                </g>
                            </g>
                            <g id="s-link" transform="translate(0.000000, 35.975260)">
                                <polygon id="s" points="2.49764002 0 4.02954537 4.64856119 0.0189650802 1.77559238 4.97631496 1.77559238 0.965734666 4.64856119"></polygon>
                            </g>
                        </g>
                        <g id="s4-link" transform="translate(5.364496, 4.496907)">
                            <g id="s4">
                                <polygon id="s" points="2.49764002 0 4.02954537 4.64856119 0.0189650802 1.77559238 4.97631496 1.77559238 0.965734666 4.64856119"></polygon>
                                <g id="s-link" transform="translate(0.000000, 8.993815)">
                                    <polygon id="s" points="2.49764002 0 4.02954537 4.64856119 0.0189650802 1.77559238 4.97631496 1.77559238 0.965734666 4.64856119"></polygon>
                                </g>
                                <g id="s-link" transform="translate(0.000000, 17.987630)">
                                    <polygon id="s" points="2.49764002 0 4.02954537 4.64856119 0.0189650802 1.77559238 4.97631496 1.77559238 0.965734666 4.64856119"></polygon>
                                </g>
                                <g id="s-link" transform="translate(0.000000, 26.981445)">
                                    <polygon id="s" points="2.49764002 0 4.02954537 4.64856119 0.0189650802 1.77559238 4.97631496 1.77559238 0.965734666 4.64856119"></polygon>
                                </g>
                            </g>
                        </g>
                    </g>
                </g>
                <g id="s5-link" transform="translate(53.644964, 0.000000)">
                    <g id="s5">
                        <g id="s4">
                            <polygon id="s" points="2.49764002 0 4.02954537 4.64856119 0.0189650802 1.77559238 4.97631496 1.77559238 0.965734666 4.64856119"></polygon>
                            <g id="s-link" transform="translate(0.000000, 8.993815)">
                                <polygon id="s" points="2.49764002 0 4.02954537 4.64856119 0.0189650802 1.77559238 4.97631496 1.77559238 0.965734666 4.64856119"></polygon>
                            </g>
                            <g id="s-link" transform="translate(0.000000, 17.987630)">
                                <polygon id="s" points="2.49764002 0 4.02954537 4.64856119 0.0189650802 1.77559238 4.97631496 1.77559238 0.965734666 4.64856119"></polygon>
                            </g>
                            <g id="s-link" transform="translate(0.000000, 26.981445)">
                                <polygon id="s" points="2.49764002 0 4.02954537 4.64856119 0.0189650802 1.77559238 4.97631496 1.77559238 0.965734666 4.64856119"></polygon>
                            </g>
                        </g>
                        <g id="s-link" transform="translate(0.000000, 35.975260)">
                            <polygon id="s" points="2.49764002 0 4.02954537 4.64856119 0.0189650802 1.77559238 4.97631496 1.77559238 0.965734666 4.64856119"></polygon>
                        </g>
                    </g>
                </g>
            </g>
        </g>
    </g>
</svg>